<?xml version="1.0" encoding="UTF-8"?>
<svg width="100px" height="100px" viewBox="0 0 100 100" version="1.1" xmlns="http://www.w3.org/2000/svg" xmlns:xlink="http://www.w3.org/1999/xlink">
    <!-- Generator: Sketch 48.2 (47327) - http://www.bohemiancoding.com/sketch -->
    <title>Artboard</title>
    <desc>Created with Sketch.</desc>
    <defs></defs>
    <g id="Page-1" stroke="none" stroke-width="1" fill="none" fill-rule="evenodd">
        <g id="Artboard" stroke="#000000" stroke-width="1.3">
            <g id="noun_628599_cc" transform="translate(1.000000, 5.000000)">
                <path d="M7.96694061,30.1107091 C7.85713815,30.331322 7.85713815,30.5519349 7.74733569,30.7725479 C7.63753324,30.9931608 7.52773078,31.3240802 7.52773078,31.5446932 L3.39206434e-14,29.4775924 C3.36805981e-14,17.6436631 -5.32907052e-15,9.76282312 -5.32907052e-15,-5.32907052e-15 L24.4529925,8.56411791 C21.8939197,10.3124492 21.9118525,10.4761574 21.80205,10.4761574 C17.5197542,13.895658 13.8962732,18.0873038 11.1512118,22.8304821 L11.0414094,23.051095 C10.712002,23.6026273 10.4923971,24.0438532 10.1629897,24.5953856 L10.0531873,24.8159985 C9.28457007,26.4705956 8.62575534,28.2354991 7.96694061,30.1107091 Z M9.50417498,61.2171336 C9.39437253,60.9965206 9.28457007,60.7759077 9.17476762,60.5552947 C8.95516271,60.1140689 8.7355578,59.5625365 8.62575534,59.1213106 C8.62575534,59.0110042 8.51595288,58.9006977 8.51595288,58.6800848 C8.18654552,57.6873265 7.85713815,56.6945683 7.52773078,55.7018101 L7.41792833,55.0399712 C7.41792833,55.0399712 7.41792833,55.0399712 7.41792833,54.9296648 L7.30812587,54.4884389 L6.9787185,53.3853742 C6.86891605,52.8338418 6.75911359,52.2823095 6.64931114,51.8410836 C6.42970623,50.9586319 6.31990377,50.0761801 6.21010132,49.1937283 C6.21010132,49.1937283 6.21010132,49.0834219 6.21010132,49.0834219 C5.9904964,47.3185184 5.88069395,45.5536148 5.88069395,43.6784049 C5.88069395,43.5680984 5.88069395,43.5680984 5.88069395,43.4577919 C5.88069395,41.6928884 5.9904964,39.9279849 6.21010132,38.1630814 C6.21010132,38.0527749 6.21010132,37.9424684 6.21010132,37.832162 C6.31990377,36.9497102 6.42970623,36.1775649 6.64931114,35.2951131 C6.64931114,35.2951131 6.64931114,35.1848067 6.64931114,35.1848067 C6.75911359,34.6332743 6.86891605,34.1920484 6.9787185,33.6405161 L0.0611637981,31.7653061 C0.0611637981,43.4577919 0.0611637981,55.0399712 0.0611637981,66.6751047 L8.29634797,62.6511177 L9.7237799,61.8789724 C9.61397744,61.6583594 9.50417498,61.4377465 9.50417498,61.2171336 Z M15.4335076,70.9241029 C15.4335076,70.9241029 15.3237051,70.8137964 15.3237051,70.8137964 L15.1041002,70.5931835 L14.4452855,69.7107317 C14.2256806,69.3798123 14.0060757,69.1591994 13.7864708,68.82828 C13.6766683,68.607667 13.4570634,68.3870541 13.3472609,68.1664412 C13.0178536,67.7252153 12.6884462,67.1736829 12.3590388,66.6221506 C12.1394339,66.4015376 12.0296315,66.0706182 11.8100266,65.7396988 C11.4806192,65.2984729 11.2610143,64.7469406 10.9316069,64.3057147 C10.8218045,64.1954082 10.712002,63.9747953 10.712002,63.8644888 L0.160130019,69.3394993 C0.160130019,79.0464687 0.160130019,78.7955057 0.160130019,88 L21.0334328,80.8947169 C20.9602312,80.8947169 22.3112302,80.4647127 25.08643,79.6047042 C24.5072793,79.1123472 23.9980991,78.7190934 23.5588893,78.4249429 C23.5588893,78.4249429 23.5588893,78.4249429 23.4490869,78.3146364 C22.7902721,77.8734105 22.1314574,77.3218782 21.5824451,76.8806523 C21.3628402,76.7703458 21.2530377,76.5497329 21.0334328,76.4394264 C20.4844206,75.9982005 19.9354083,75.5569746 19.4961985,75.0054423 C19.386396,74.8951358 19.2765935,74.7848293 19.1667911,74.7848293 C18.6177788,74.233297 18.0687665,73.6817647 17.5197542,73.1302323 C17.3001493,72.9096194 17.0805444,72.6890064 16.970742,72.4683935 C16.5315321,72.1374741 16.2021248,71.8065547 15.8727174,71.4756353 L15.4335076,70.9241029 Z M14.2037201,23.8232403 C14.423325,23.9335468 14.7527324,24.0438532 14.9723373,24.2644662 C26.2819902,30.0004026 37.7014456,32.9786773 48.9012961,32.9786773 C60.4305539,32.9786773 72.0696142,29.8900961 83.5988721,23.9335468 C81.5126254,20.2934332 78.8773665,17.0945456 75.9127002,14.2265774 C75.9127002,14.2265774 75.8028977,14.1162709 75.8028977,14.1162709 C75.2538854,13.5647386 74.5950707,13.0132062 73.936256,12.5719804 C73.2774412,12.020448 70.8519329,9.5912459 70.8519329,9.5912459 C62.7420073,18.9257713 55.1865101,28.3872649 48.9012961,27.0221279 C42.616082,25.6569909 36.4323197,19.6600131 27.4398039,10.1663782 C27.3300014,10.2766846 25.8427804,11.0276898 25.7329779,11.1379962 C21.0114723,14.3368839 17.0585839,18.7491427 14.2037201,23.8232403 Z M68.0069234,40.7001302 C68.5559356,40.7001302 68.9951455,40.7001302 69.5441577,40.8104366 C69.5441577,40.8104366 69.5441577,40.8104366 69.6539602,40.8104366 C71.1911946,40.8104366 72.8382314,40.9207431 74.3754658,40.9207431 C74.5950707,40.9207431 74.8146756,40.9207431 75.0342805,40.9207431 C76.1323051,40.9207431 77.2303296,40.9207431 78.3283542,40.9207431 C79.3165763,40.9207431 80.4146009,40.9207431 81.402823,40.9207431 C82.1714401,40.9207431 82.9400573,40.9207431 83.7086745,40.9207431 C84.9165015,40.9207431 86.234131,40.8104366 87.441958,40.8104366 C87.8811678,40.8104366 88.3203777,40.8104366 88.8693899,40.7001302 C88.8693899,40.7001302 88.8693899,40.7001302 88.8693899,40.7001302 C88.8693899,40.2589043 88.7595875,39.8176784 88.7595875,39.3764525 C88.7595875,39.1558396 88.7595875,39.0455331 88.649785,38.8249202 C88.649785,38.4940008 88.5399826,38.0527749 88.5399826,37.7218555 C88.5399826,37.5012425 88.4301801,37.1703231 88.4301801,36.9497102 C88.4301801,36.6187908 88.3203777,36.2878714 88.2105752,36.0672584 C88.1007727,35.736339 88.1007727,35.4054196 87.9909703,35.1848067 C87.8811678,34.9641937 87.8811678,34.6332743 87.7713654,34.4126614 C87.7713654,34.3023549 87.6615629,34.1920484 87.6615629,34.081742 C80.9636131,35.8466455 74.3754658,38.1630814 68.0069234,40.7001302 Z M13.6547078,32.9786773 C13.9841152,33.0889837 14.3135225,33.0889837 14.6429299,33.1992902 C16.1801643,33.5302096 17.6075962,33.9714355 19.1448306,34.3023549 C19.5840404,34.4126614 20.0232502,34.5229679 20.4624601,34.6332743 C21.5604846,34.8538873 22.6585092,35.0745002 23.7565337,35.4054196 C24.305546,35.5157261 24.8545583,35.6260326 25.4035706,35.736339 C26.5015951,35.956952 27.4898172,36.1775649 28.5878418,36.3981778 C29.1368541,36.5084843 29.5760639,36.6187908 30.1250762,36.7290973 C31.3329032,36.9497102 32.5407302,37.1703231 33.7485572,37.3909361 C34.0779646,37.5012425 34.4073719,37.5012425 34.7367793,37.611549 C37.9210505,38.1630814 41.1053217,38.6043072 44.3993954,39.0455331 C44.5091978,39.0455331 44.7288028,39.0455331 44.8386052,39.1558396 C46.2660371,39.3764525 47.8032715,39.486759 49.2307034,39.7073719 C49.4503084,39.7073719 49.6699133,39.7073719 49.8895182,39.8176784 C51.0973452,39.9279849 52.4149747,40.0382913 53.6228017,40.1485978 C54.9404311,39.486759 56.2580606,38.7146137 57.5756901,38.0527749 C42.9719635,37.7218555 28.6976442,33.9714355 14.8625348,26.9118214 C14.6429299,26.801515 14.3135225,26.6912085 14.0939176,26.4705956 C13.8743127,26.3602891 13.5449054,26.2499826 13.3253004,26.0293697 C12.8860906,26.9118214 12.4468808,27.9045797 12.007671,28.7870314 C11.8978685,28.8973379 11.8978685,29.1179508 11.7880661,29.2282573 C11.6782636,29.5591767 11.5684612,29.8900961 11.4586587,30.2210155 C11.3488562,30.4416285 11.2390538,30.7725479 11.1292513,30.9931608 C11.0194489,31.3240802 10.9096464,31.5446932 10.9096464,31.8756126 C10.9096464,31.985919 10.799844,32.206532 10.799844,32.3168385 C11.6782636,32.4271449 12.6664857,32.6477579 13.6547078,32.9786773 Z M12.8860906,52.2823095 C13.5449054,52.172003 14.2037201,51.9513901 14.8625348,51.8410836 C15.4115471,51.7307772 15.9605594,51.6204707 16.3997692,51.5101642 C17.0585839,51.3998577 17.7173987,51.2895513 18.3762134,51.1792448 C18.9252257,51.0689383 19.474238,50.9586319 19.9134478,50.8483254 C20.5722625,50.7380189 21.2310772,50.6277125 21.889892,50.517406 C22.4389043,50.4070995 22.8781141,50.4070995 23.4271264,50.296793 C24.0859411,50.1864866 24.7447558,50.1864866 25.4035706,50.0761801 C25.8427804,49.9658736 26.3917927,49.9658736 26.8310025,49.8555672 C27.4898172,49.7452607 28.2584344,49.7452607 28.9172491,49.6349542 C29.356459,49.6349542 29.7956688,49.5246478 30.2348786,49.5246478 C31.0034958,49.5246478 31.772113,49.4143413 32.5407302,49.4143413 C32.8701375,49.4143413 33.3093474,49.4143413 33.6387547,49.3040348 C33.9681621,49.3040348 34.2975695,49.3040348 34.7367793,49.3040348 C39.6778898,46.766986 44.6190003,44.1196307 49.6699133,41.5825819 C49.4503084,41.5825819 49.3405059,41.5825819 49.120901,41.4722755 C48.3522838,41.361969 47.6934691,41.361969 46.9248519,41.2516625 C46.2660371,41.141356 45.6072224,41.0310496 44.8386052,41.0310496 C44.069988,40.9207431 43.4111733,40.8104366 42.6425561,40.8104366 C41.9837414,40.7001302 41.3249266,40.5898237 40.5563094,40.4795172 C39.7876923,40.3692108 39.1288775,40.2589043 38.3602603,40.1485978 C37.7014456,40.0382913 37.0426309,39.9279849 36.2740137,39.8176784 C35.5053965,39.7073719 34.8465818,39.5970655 34.0779646,39.486759 C33.4191498,39.3764525 32.7603351,39.2661461 31.9917179,39.1558396 C31.3329032,39.0455331 30.564286,38.9352266 29.9054712,38.8249202 C29.2466565,38.7146137 28.5878418,38.6043072 27.8192246,38.3836943 C27.0506074,38.2733878 26.3917927,38.1630814 25.6231755,37.9424684 C24.9643607,37.832162 24.305546,37.611549 23.6467313,37.5012425 C22.8781141,37.3909361 22.2192994,37.1703231 21.4506822,37.0600167 C20.7918674,36.9497102 20.1330527,36.7290973 19.474238,36.6187908 C18.7056208,36.5084843 18.046806,36.2878714 17.2781888,36.1775649 C16.6193741,36.0672584 15.9605594,35.8466455 15.3017446,35.736339 C14.5331275,35.5157261 13.8743127,35.4054196 13.1056955,35.1848067 C12.4468808,35.0745002 11.7880661,34.8538873 11.1292513,34.6332743 C10.5802391,34.5229679 10.0312268,34.4126614 9.48221449,34.1920484 C9.48221449,34.3023549 9.48221449,34.4126614 9.37241204,34.4126614 C9.26260958,34.9641937 9.15280713,35.6260326 9.04300467,36.1775649 C9.04300467,36.2878714 9.04300467,36.3981778 8.93320222,36.5084843 C8.82339976,37.2806296 8.7135973,37.9424684 8.60379485,38.7146137 C8.60379485,38.8249202 8.60379485,38.8249202 8.60379485,38.9352266 C8.49399239,39.5970655 8.49399239,40.2589043 8.38418994,40.9207431 C8.38418994,41.0310496 8.38418994,41.141356 8.38418994,41.2516625 C8.38418994,41.9135013 8.27438748,42.5753402 8.27438748,43.237179 C8.27438748,43.3474854 8.27438748,43.3474854 8.27438748,43.4577919 C8.27438748,45.0020825 8.38418994,46.5463731 8.49399239,47.9803572 C8.49399239,48.0906636 8.49399239,48.0906636 8.49399239,48.2009701 C8.60379485,48.8628089 8.7135973,49.5246478 8.82339976,50.1864866 C8.82339976,50.296793 8.82339976,50.4070995 8.93320222,50.517406 C9.04300467,51.1792448 9.15280713,51.8410836 9.37241204,52.6132289 C9.37241204,52.6132289 9.37241204,52.7235354 9.37241204,52.7235354 C9.81162186,52.6132289 10.2508317,52.5029224 10.6900415,52.392616 C11.8978685,52.5029224 12.4468808,52.392616 12.8860906,52.2823095 Z M83.0498598,43.1268725 C80.9636131,43.1268725 78.767564,43.237179 76.6813174,43.237179 C75.2538854,43.237179 73.8264535,43.237179 72.3990216,43.237179 C71.9598118,43.237179 71.4107995,43.237179 70.9715897,43.237179 C70.09317,43.237179 69.1049479,43.237179 68.2265283,43.1268725 C67.677516,43.1268725 67.0187013,43.1268725 66.469689,43.016566 C65.5912693,43.016566 64.8226521,42.9062596 63.9442325,42.9062596 C63.7246276,42.9062596 63.3952202,42.9062596 63.1756153,42.9062596 C58.1247024,45.112389 53.1835918,47.5391313 48.3522838,50.1864866 C48.7914936,50.1864866 49.120901,50.296793 49.5601108,50.296793 C49.9993206,50.296793 50.4385305,50.4070995 50.8777403,50.517406 C51.4267526,50.6277125 51.9757648,50.6277125 52.6345796,50.7380189 C53.0737894,50.8483254 53.5129992,50.8483254 53.952209,50.9586319 C54.5012213,51.0689383 55.0502336,51.1792448 55.5992459,51.2895513 C56.0384557,51.3998577 56.4776655,51.5101642 56.9168753,51.5101642 C57.4658876,51.6204707 58.0148999,51.7307772 58.5639122,51.8410836 C59.003122,51.9513901 59.4423318,52.0616966 59.9913441,52.172003 C60.5403564,52.2823095 61.0893687,52.392616 61.6383809,52.5029224 C62.0775908,52.6132289 62.5168006,52.7235354 63.0658129,52.8338418 C63.6148251,52.9441483 64.1638374,53.1647613 64.7128497,53.2750677 C65.1520595,53.3853742 65.5912693,53.4956807 66.1402816,53.7162936 C66.6892939,53.8266001 67.2383062,54.047213 67.7873184,54.1575195 C68.2265283,54.267826 68.6657381,54.4884389 69.2147504,54.5987454 C69.7637627,54.8193583 70.3127749,54.9296648 70.8617872,55.1502777 C71.300997,55.2605842 71.7402069,55.4811971 72.2892191,55.5915036 C72.8382314,55.8121165 73.3872437,55.922423 73.8264535,56.1430359 C74.2656633,56.3636489 74.7048732,56.4739554 75.2538854,56.6945683 C75.8028977,56.9151812 76.35191,57.1357942 76.7911198,57.3564071 C77.2303296,57.5770201 77.6695395,57.797633 78.2185517,57.9079395 C78.767564,58.1285524 79.3165763,58.3491653 79.7557861,58.5697783 C80.1949959,58.7903912 80.6342058,59.0110042 81.183218,59.2316171 C81.7322303,59.45223 82.1714401,59.672843 82.7204524,60.0037624 C83.1596622,60.2243753 83.5988721,60.4449883 84.1478843,60.6656012 C84.4772917,60.8862141 84.8066991,60.9965206 85.1361064,61.1068271 C85.1361064,60.9965206 85.2459089,60.8862141 85.2459089,60.7759077 C85.4655138,60.2243753 85.6851187,59.7831495 85.9047236,59.2316171 C85.9047236,59.1213106 86.0145261,59.0110042 86.1243285,58.7903912 C86.6733408,57.3564071 87.2223531,55.922423 87.5517605,54.4884389 C87.5517605,54.4884389 87.5517605,54.3781324 87.5517605,54.3781324 C87.7713654,53.6059871 87.8811678,52.9441483 88.1007727,52.172003 C88.1007727,52.172003 88.1007727,52.172003 88.1007727,52.172003 C88.7595875,49.1937283 89.0889948,45.9948407 88.9791924,42.9062596 C88.9791924,42.9062596 88.9791924,42.7959531 88.9791924,42.7959531 C87.7713654,42.9062596 86.4537359,42.9062596 85.2459089,42.9062596 C84.4772917,43.016566 83.7086745,43.016566 83.0498598,43.1268725 Z M82.9400573,62.6511177 C82.5008475,62.4305047 82.0616377,62.2098918 81.5126254,61.9892788 C80.9636131,61.7686659 80.5244033,61.548053 79.975391,61.32744 C79.5361812,61.1068271 79.0969714,60.8862141 78.6577616,60.6656012 C78.1087493,60.4449883 77.6695395,60.2243753 77.1205272,60.0037624 C76.6813174,59.7831495 76.2421075,59.5625365 75.8028977,59.45223 C75.2538854,59.2316171 74.8146756,59.0110042 74.2656633,58.7903912 C73.8264535,58.5697783 73.3872437,58.4594718 72.9480339,58.2388589 C72.3990216,58.0182459 71.9598118,57.9079395 71.4107995,57.6873265 C70.9715897,57.5770201 70.5323798,57.3564071 70.09317,57.2461006 C69.5441577,57.0254877 68.9951455,56.9151812 68.5559356,56.6945683 C68.1167258,56.5842618 67.677516,56.3636489 67.2383062,56.2533424 C66.6892939,56.0327295 66.1402816,55.922423 65.5912693,55.8121165 C65.1520595,55.7018101 64.7128497,55.5915036 64.2736399,55.3708907 C63.7246276,55.2605842 63.1756153,55.0399712 62.626603,54.9296648 C62.1873932,54.8193583 61.7481834,54.7090518 61.3089736,54.5987454 C60.7599613,54.4884389 60.210949,54.3781324 59.6619367,54.267826 C59.2227269,54.1575195 58.7835171,54.047213 58.3443073,53.9369065 C57.795295,53.8266001 57.2462827,53.7162936 56.6972704,53.6059871 C56.2580606,53.4956807 55.8188508,53.3853742 55.379641,53.3853742 C54.8306287,53.2750677 54.2816164,53.1647613 53.7326041,53.0544548 C53.2933943,52.9441483 52.8541845,52.9441483 52.4149747,52.8338418 C51.8659624,52.7235354 51.3169501,52.7235354 50.7679378,52.6132289 C50.328728,52.5029224 49.8895182,52.5029224 49.4503084,52.392616 C48.9012961,52.2823095 48.2424813,52.2823095 47.6934691,52.172003 C47.2542592,52.172003 46.9248519,52.0616966 46.4856421,52.0616966 C46.0464322,52.0616966 45.6072224,51.9513901 45.0582101,51.9513901 C44.1797905,52.5029224 43.3013708,52.9441483 42.4229512,53.4956807 C55.160036,53.6059871 67.4579111,58.1285524 79.2067738,67.0633765 C79.5361812,67.2839894 79.8655886,67.5046023 80.0851935,67.7252153 C80.3047984,67.8355217 80.5244033,68.0561347 80.6342058,68.1664412 C80.7440082,67.9458282 80.8538107,67.8355217 80.9636131,67.6149088 C81.2930205,67.1736829 81.6224279,66.6221506 81.9518352,66.1809247 C82.1714401,65.8500053 82.3910451,65.5190859 82.61065,65.1881665 C82.9400573,64.7469406 83.1596622,64.1954082 83.4890696,63.7541824 C83.5988721,63.5335694 83.7086745,63.3129565 83.818477,63.0923435 C83.5988721,62.9820371 83.2694647,62.8717306 82.9400573,62.6511177 Z M30.1250762,51.9513901 C29.7956688,51.9513901 29.4662614,51.9513901 29.1368541,52.0616966 C28.4780393,52.0616966 27.8192246,52.172003 27.0506074,52.2823095 C26.6113976,52.2823095 26.0623853,52.392616 25.6231755,52.5029224 C24.9643607,52.6132289 24.305546,52.6132289 23.6467313,52.7235354 C23.097719,52.8338418 22.6585092,52.8338418 22.1094969,52.9441483 C21.4506822,53.0544548 20.7918674,53.1647613 20.2428551,53.2750677 C19.6938429,53.3853742 19.1448306,53.4956807 18.7056208,53.6059871 C18.046806,53.7162936 17.4977938,53.8266001 16.838979,53.9369065 C16.2899667,54.047213 15.7409545,54.1575195 15.1919422,54.267826 C14.5331275,54.3781324 13.9841152,54.4884389 13.3253004,54.7090518 C12.7762882,54.8193583 12.2272759,54.9296648 11.6782636,55.1502777 C11.2390538,55.2605842 10.799844,55.3708907 10.3606341,55.4811971 C10.3606341,55.4811971 10.3606341,55.4811971 10.3606341,55.4811971 C10.5802391,56.3636489 10.9096464,57.2461006 11.2390538,58.1285524 C11.2390538,58.2388589 11.3488562,58.3491653 11.3488562,58.4594718 C11.6782636,59.3419236 12.007671,60.1140689 12.4468808,60.9965206 C12.4468808,61.1068271 12.5566833,61.1068271 12.5566833,61.2171336 C18.5958183,57.9079395 24.4153485,54.9296648 30.1250762,51.9513901 Z M78.5479591,69.4901188 C78.2185517,69.1591994 77.7793419,68.9385864 77.4499345,68.607667 C77.3401321,68.4973606 77.2303296,68.4973606 77.2303296,68.3870541 C67.677516,61.4377465 58.2345048,57.9079395 48.9012961,57.9079395 C39.0190751,57.9079395 28.9172491,61.8789724 18.9252257,69.7107317 C18.8154232,69.8210382 18.7056208,69.8210382 18.7056208,69.9313447 C18.8154232,70.1519576 19.0350281,70.2622641 19.1448306,70.482877 C19.5840404,70.9241029 19.9134478,71.3653288 20.3526576,71.8065547 C20.682065,72.1374741 20.9016699,72.358087 21.2310772,72.6890064 C21.6702871,73.1302323 22.1094969,73.4611517 22.4389043,73.9023776 C22.7683116,74.233297 23.097719,74.4539099 23.4271264,74.7848293 C23.8663362,75.1157488 24.305546,75.4466682 24.7447558,75.7775876 C25.0741632,76.108507 25.513373,76.3291199 25.8427804,76.5497329 C26.2819902,76.8806523 26.7212,77.2115717 27.1604099,77.4321846 C27.3800148,77.5424911 27.5996197,77.763104 27.929027,77.8734105 C34.8465818,66.4015376 41.8739389,60.5552947 48.9012961,60.5552947 C55.9286532,60.5552947 62.1787606,67.890675 70.1093868,77.5534362 C70.3289917,77.4431297 71.4107995,76.9909587 71.8500093,76.6600393 C72.1794167,76.4394264 72.6186265,76.108507 72.9480339,75.887894 C73.3872437,75.5569746 73.8264535,75.2260552 74.2656633,74.8951358 C74.5950707,74.5642164 74.9244781,74.3436035 75.2538854,74.0126841 C75.6930953,73.6817647 76.1323051,73.2405388 76.4617124,72.7993129 C76.7911198,72.4683935 77.0107247,72.2477805 77.3401321,71.9168611 C77.7793419,71.4756353 78.2185517,71.0344094 78.5479591,70.5931835 C78.767564,70.3725706 78.8773665,70.2622641 79.0969714,70.0416511 C78.9871689,69.8210382 78.767564,69.7107317 78.5479591,69.4901188 Z M87.0027482,31.6549996 C87.0027482,31.5446932 87.0027482,31.5446932 86.8929457,31.4343867 C86.5635384,30.5519349 86.234131,29.6694832 85.9047236,28.7870314 C85.9047236,28.676725 85.9047236,28.676725 85.7949212,28.5664185 C85.4655138,27.5736603 85.026304,26.6912085 84.5870942,25.8087567 C78.767564,29.0076444 72.8382314,32.0962255 67.0187013,35.1848067 C66.2500841,35.6260326 65.3716644,36.0672584 64.6030472,36.5084843 C63.83443,36.9497102 63.0658129,37.2806296 62.2971957,37.7218555 C60.7599613,38.4940008 59.2227269,39.3764525 57.6854925,40.1485978 C57.6854925,40.1485978 57.6854925,40.1485978 57.6854925,40.1485978 C57.0266778,40.4795172 56.4776655,40.8104366 55.8188508,41.141356 C55.160036,41.4722755 54.6110238,41.8031949 53.952209,42.1341143 C53.952209,42.1341143 53.952209,42.1341143 53.952209,42.1341143 C49.2307034,44.5608566 44.6190003,47.0979054 39.8974947,49.5246478 C39.8974947,49.5246478 39.8974947,49.5246478 39.8974947,49.5246478 C39.23868,49.8555672 38.4700628,50.296793 37.8112481,50.6277125 C37.0426309,50.9586319 36.3838161,51.3998577 35.6151989,51.7307772 C35.6151989,51.7307772 35.6151989,51.7307772 35.6151989,51.7307772 C33.5289523,52.8338418 31.3329032,53.9369065 29.2466565,55.0399712 C27.7094221,55.8121165 26.1721878,56.5842618 24.6349534,57.4667136 C21.0114723,59.3419236 17.4977938,61.1068271 13.8743127,62.9820371 C13.8743127,62.9820371 13.8743127,62.9820371 13.8743127,62.9820371 C13.9841152,63.20265 14.0939176,63.423263 14.2037201,63.6438759 C14.5331275,64.1954082 14.7527324,64.6366341 15.0821397,65.1881665 C15.3017446,65.5190859 15.5213496,65.8500053 15.7409545,66.1809247 C16.0703618,66.7324571 16.3997692,67.1736829 16.838979,67.7252153 C16.9487815,67.9458282 17.0585839,68.0561347 17.2781888,68.2767476 C22.4389043,64.0851018 27.8192246,60.2243753 33.3093474,56.5842618 C34.0779646,56.0327295 34.8465818,55.5915036 35.6151989,55.1502777 C36.2740137,54.7090518 37.0426309,54.267826 37.7014456,53.8266001 C38.7994702,53.1647613 39.7876923,52.5029224 40.8857168,51.8410836 C40.8857168,51.8410836 40.8857168,51.8410836 40.8857168,51.8410836 C41.4347291,51.5101642 42.0935438,51.1792448 42.6425561,50.8483254 C43.1915684,50.517406 43.8503831,50.1864866 44.3993954,49.8555672 C44.3993954,49.8555672 44.3993954,49.8555672 44.3993954,49.8555672 C49.0110985,47.3185184 53.6228017,44.891776 58.3443073,42.6856466 C58.3443073,42.6856466 58.3443073,42.6856466 58.3443073,42.6856466 C59.003122,42.3547272 59.7717392,42.0238078 60.5403564,41.6928884 C61.3089736,41.361969 62.0775908,41.0310496 62.7364055,40.7001302 C62.7364055,40.7001302 62.7364055,40.7001302 62.7364055,40.7001302 C65.4814669,39.486759 68.2265283,38.3836943 71.0813921,37.2806296 C72.728429,36.6187908 74.3754658,36.0672584 76.1323051,35.4054196 C79.7557861,33.9714355 83.3792672,32.7580643 87.0027482,31.6549996 C87.0027482,31.6549996 87.0027482,31.6549996 87.0027482,31.6549996 Z" id="Shape" fill-rule="nonzero"></path>
                <g id="Group" transform="translate(85.500000, 44.000000) scale(-1, 1) translate(-85.500000, -44.000000) translate(73.000000, 0.000000)">
                    <path d="M7.92799769,29.997054 C7.81873196,30.2168342 7.81873196,30.4366144 7.70946622,30.6563946 C7.60020049,30.8761748 7.49093476,31.2058452 7.49093476,31.4256254 L3.90578588e-14,29.366327 C3.88189869e-14,17.5770658 5.99866219e-31,9.72597262 0,0 L24.3334647,8.53179201 C21.7869008,10.2735241 21.8047459,10.4366144 21.6954802,10.4366144 C17.4341166,13.8432078 13.8283473,18.019032 11.096704,22.7443067 L10.9874383,22.9640869 C10.659641,23.5135375 10.4411096,23.9530979 10.1133124,24.5025485 L10.0040466,24.7223287 C9.2391865,26.3706803 8.5835921,28.1289221 7.92799769,29.997054 Z" id="Path"></path>
                    <path d="M9.39685315,61.2087912 C9.28758741,60.989011 9.17832168,60.7692308 9.06905594,60.5494505 C8.85052448,60.1098901 8.63199301,59.5604396 8.52272727,59.1208791 C8.52272727,59.010989 8.41346154,58.9010989 8.41346154,58.6813187 C8.08566434,57.6923077 7.75786713,56.7032967 7.43006993,55.7142857 L7.3208042,55.0549451 C7.3208042,55.0549451 7.3208042,55.0549451 7.3208042,54.9450549 L7.21153846,54.5054945 L6.88374126,53.4065934 C6.77447552,52.8571429 6.66520979,52.3076923 6.55594406,51.8681319 C6.33741259,50.989011 6.22814685,50.1098901 6.11888112,49.2307692 C6.11888112,49.2307692 6.11888112,49.1208791 6.11888112,49.1208791 C5.90034965,47.3626374 5.79108392,45.6043956 5.79108392,43.7362637 C5.79108392,43.6263736 5.79108392,43.6263736 5.79108392,43.5164835 C5.79108392,41.7582418 5.90034965,40 6.11888112,38.2417582 C6.11888112,38.1318681 6.11888112,38.021978 6.11888112,37.9120879 C6.22814685,37.032967 6.33741259,36.2637363 6.55594406,35.3846154 C6.55594406,35.3846154 6.55594406,35.2747253 6.55594406,35.2747253 C6.66520979,34.7252747 6.77447552,34.2857143 6.88374126,33.7362637 L0,31.8681319 C1.94146519e-15,43.5164835 -3.65423361e-17,55.0549451 0,66.6461608 L8.19493007,62.6373626 L9.61538462,61.8681319 C9.50611888,61.6483516 9.39685315,61.4285714 9.39685315,61.2087912 Z" id="Path"></path>
                    <path d="M15.1987203,70.7692308 C15.1987203,70.7692308 15.0894546,70.6593407 15.0894546,70.6593407 L14.8709231,70.4395604 L14.2153287,69.5604396 C13.9967973,69.2307692 13.7782658,69.010989 13.5597343,68.6813187 C13.4504686,68.4615385 13.2319371,68.2417582 13.1226714,68.021978 C12.7948742,67.5824176 12.467077,67.032967 12.1392798,66.4835165 C11.9207483,66.2637363 11.8114826,65.9340659 11.5929511,65.6043956 C11.2651539,65.1648352 11.0466224,64.6153846 10.7188252,64.1758242 C10.6095595,64.0659341 10.5002938,63.8461538 10.5002938,63.7362637 L4.0675067e-15,69.1906084 C4.0675067e-15,78.8609381 -8.96966467e-18,78.6109224 0,87.7806736 L21.3176014,79.7775362 C21.2083357,79.7775362 23.9399791,78.6813187 23.2843847,78.2417582 C23.2843847,78.2417582 22.4959681,79.4862682 24.1140503,78.8350889 C23.3517594,78.2388081 21.8639301,77.1428571 21.3176014,76.7032967 C21.09907,76.5934066 20.9898042,76.3736264 20.7712728,76.2637363 C20.2249441,75.8241758 19.6786154,75.3846154 19.2415525,74.8351648 C19.1322868,74.7252747 19.023021,74.6153846 18.9137553,74.6153846 C18.3674266,74.0659341 17.821098,73.5164835 17.2747693,72.967033 C17.0562378,72.7472527 16.8377063,72.5274725 16.7284406,72.3076923 C16.2913777,71.978022 15.9635805,71.6483516 15.6357833,71.3186813 L15.1987203,70.7692308 Z" id="Path"></path>
                </g>
            </g>
        </g>
    </g>
</svg>