<?xml version="1.0" encoding="UTF-8"?>
<svg width="100px" height="100px" viewBox="0 0 100 100" version="1.1" xmlns="http://www.w3.org/2000/svg" xmlns:xlink="http://www.w3.org/1999/xlink">
    <!-- Generator: Sketch 48.2 (47327) - http://www.bohemiancoding.com/sketch -->
    <title>noun_195994_cc</title>
    <desc>Created with Sketch.</desc>
    <defs></defs>
    <g id="Page-1" stroke="none" stroke-width="1" fill="none" fill-rule="evenodd">
        <g id="noun_195994_cc" fill="#000000" fill-rule="nonzero">
            <path d="M93.2022858,66.2679985 C90.5444196,66.2679985 88.3295311,68.0461205 87.4435757,70.4169498 L58.6500255,64.2527936 C58.6500255,64.0157107 58.6500255,63.8971692 58.6500255,63.6600863 C58.6500255,62.830296 58.539281,62.0005058 58.3177922,61.1707155 L73.8220116,53.9396861 C75.3724335,56.6661398 78.1410441,58.5628033 81.3526324,58.5628033 C86.2253871,58.5628033 90.2121863,54.2953105 90.2121863,49.079486 C90.2121863,45.2861591 88.1080423,41.9669981 85.0071984,40.5445005 L87.1113424,32.8393052 C87.3328313,32.8393052 87.5543201,32.9578467 87.775809,32.9578467 C88.8832532,32.9578467 89.9906975,32.4836808 90.7659084,31.6538905 C92.5378192,29.8757685 92.6485636,26.9122319 90.9873973,25.0155684 C90.2121863,24.0672367 88.9939977,23.5930709 87.775809,23.5930709 C86.6683647,23.5930709 85.5609205,24.0672367 84.7857095,24.897027 C83.8997541,25.7268172 83.4567765,26.9122319 83.4567765,28.216188 C83.4567765,29.5201441 83.7890097,30.7055588 84.6749651,31.5353491 C85.1179428,32.0095149 85.5609205,32.3651393 86.1146426,32.6022223 L84.121243,40.1888761 C83.2352876,39.9517931 82.3493322,39.7147102 81.4633768,39.7147102 C79.0269995,39.7147102 76.812111,40.7815834 75.2616891,42.4411639 L73.0468006,40.0703346 C74.9294558,37.5809638 74.9294558,33.9061784 72.8253117,31.5353491 C71.7178675,30.2313929 70.0567011,29.5201441 68.3955348,29.5201441 C66.8451128,29.5201441 65.4054353,30.1128515 64.2979911,31.2982661 C63.6335246,32.0095149 63.0798024,32.8393052 62.7475692,33.7876369 L53.4450375,32.1280564 L54.6632262,13.3985048 C57.6533257,13.0428804 59.9789586,10.3164267 59.9789586,6.99726564 C59.9789586,3.44102167 57.3210924,0.59602649 53.9987597,0.59602649 C50.6764269,0.59602649 48.0185608,3.44102167 48.0185608,6.99726564 C48.0185608,9.96080229 49.901216,12.5687145 52.5590822,13.2799633 L51.3408935,31.772432 L36.5011407,28.9274368 C36.3903962,27.8605636 36.058163,26.9122319 35.3936964,26.0824416 C34.6184855,25.1341099 33.4002968,24.659944 32.1821081,24.659944 C31.2961527,24.659944 30.4101973,25.0155684 29.6349864,25.4897343 L22.3258544,16.9547488 C22.9903209,16.1249585 23.4332986,15.0580853 23.4332986,13.9912121 C23.4332986,11.3832999 21.439899,9.24955349 19.0035217,9.24955349 C16.5671443,9.24955349 14.5737447,11.3832999 14.5737447,13.9912121 C14.5737447,16.5991244 16.5671443,18.7328708 19.0035217,18.7328708 C20.0002215,18.7328708 20.7754325,18.3772464 21.5506434,17.9030805 L28.8597754,26.438066 C27.5308423,28.216188 27.4200979,30.7055588 28.8597754,32.4836808 L22.1043655,44.1007444 C21.1076657,43.6265786 20.0002215,43.3894956 18.8927772,43.3894956 C16.8993776,43.3894956 14.905978,44.2192859 13.4663005,45.6417835 C13.1340672,45.9974079 12.8018339,46.3530323 12.5803451,46.7086567 L8.48280139,43.8636615 C8.81503466,43.2709542 8.92577909,42.5597054 8.92577909,41.8484566 C8.92577909,39.2405443 6.93237945,37.106798 4.49600213,37.106798 C2.0596248,37.106798 0.0662251656,39.2405443 0.0662251656,41.8484566 C0.0662251656,44.4563688 2.0596248,46.5901152 4.49600213,46.5901152 C5.82493521,46.5901152 7.04312388,45.8788664 7.81833485,44.9305347 L11.9158785,47.7755299 C10.2547122,50.857608 10.6976899,55.0065593 13.0233228,57.733013 C13.355556,58.0886374 13.5770449,58.3257203 13.9092782,58.5628033 L10.3654566,63.8971692 C9.59024563,63.5415448 8.70429024,63.3044619 7.81833485,63.3044619 C4.49600213,63.3044619 1.72739153,66.1494571 1.72739153,69.8242425 C1.72739153,73.499028 4.3852577,76.3440231 7.81833485,76.3440231 C11.251412,76.3440231 13.9092782,73.499028 13.9092782,69.8242425 C13.9092782,68.164662 13.2448116,66.5050815 12.2481118,65.4382083 L16.0134222,59.9853009 C16.8993776,60.3409253 17.8960774,60.5780082 19.0035217,60.5780082 C20.3324548,60.5780082 21.6613878,60.2223838 22.7688321,59.511135 L31.0746639,73.0248621 C30.0779641,73.8546524 29.524242,75.1586085 29.524242,76.5811061 C29.524242,79.1890183 31.5176416,81.3227647 33.9540189,81.3227647 C36.3903962,81.3227647 38.3837959,79.1890183 38.3837959,76.5811061 C38.3837959,73.9731938 36.3903962,71.8394474 33.9540189,71.8394474 C33.2895524,71.8394474 32.6250858,72.0765304 32.0713637,72.3136133 L23.7655319,58.5628033 C23.9870208,58.3257203 24.2085096,58.2071789 24.4299984,57.9700959 C27.6415867,54.7694764 27.7523312,49.4351104 24.7622317,45.9974079 C24.5407429,45.760325 24.319254,45.523242 23.9870208,45.2861591 L30.6316862,33.6690954 C31.0746639,33.9061784 31.628386,34.0247198 32.0713637,34.0247198 C33.1788079,34.0247198 34.2862522,33.550554 35.0614632,32.7207637 C35.5044409,32.2465979 35.8366741,31.772432 36.058163,31.2982661 L50.8979158,34.0247198 L49.7904715,54.6509349 C48.0185608,54.7694764 46.4681388,55.4807252 45.1392057,56.5475983 L43.0350617,54.0582276 C43.6995282,53.2284373 44.1425059,52.1615641 44.1425059,50.9761495 C44.1425059,48.3682372 42.1491063,46.2344908 39.712729,46.2344908 C37.2763516,46.2344908 35.282952,48.3682372 35.282952,50.9761495 C35.282952,53.5840617 37.2763516,55.7178081 39.712729,55.7178081 C40.5986844,55.7178081 41.4846397,55.3621837 42.2598507,54.8880178 L44.3639948,57.3773886 C42.9243173,59.0369691 42.0383619,61.1707155 42.0383619,63.6600863 C42.0383619,68.5202864 45.5821834,72.4321548 50.0119604,72.6692377 L50.3441937,87.1312965 C47.3540942,87.4869209 45.0284613,90.2133746 45.0284613,93.5325357 C45.0284613,97.0887797 47.6863275,99.9337748 51.0086602,99.9337748 C54.3309929,99.9337748 56.9888591,97.0887797 56.9888591,93.5325357 C56.9888591,90.0948332 54.5524818,87.3683795 51.3408935,87.1312965 L51.0086602,72.6692377 C54.3309929,72.3136133 57.0996035,69.942784 58.2070478,66.6236229 L87.000598,72.7877792 C87.000598,72.7877792 87.000598,72.9063206 87.000598,72.9063206 C87.000598,76.5811061 89.7692086,79.5446427 93.2022858,79.5446427 C96.6353629,79.5446427 99.4039735,76.5811061 99.4039735,72.9063206 C99.4039735,69.2315352 96.5246185,66.2679985 93.2022858,66.2679985 Z M86.3361315,26.438066 C86.7791092,26.0824416 87.2220869,25.8453587 87.775809,25.8453587 C88.3295311,25.8453587 88.9939977,26.0824416 89.3262309,26.5566075 C90.1014419,27.5049392 90.1014419,28.9274368 89.2154865,29.8757685 C88.3295311,30.7055588 86.8898536,30.7055588 86.1146426,29.7572271 C85.6716649,29.2830612 85.5609205,28.6903539 85.5609205,28.0976466 C85.5609205,27.5049392 85.8931538,26.7936904 86.3361315,26.438066 Z M4.60674655,44.2192859 C3.38855789,44.2192859 2.39185807,43.1524127 2.39185807,41.8484566 C2.39185807,40.5445005 3.38855789,39.4776273 4.60674655,39.4776273 C5.82493521,39.4776273 6.82163503,40.5445005 6.82163503,41.8484566 C6.82163503,43.1524127 5.82493521,44.2192859 4.60674655,44.2192859 Z M7.92907927,73.7361109 C5.82493521,73.7361109 4.05302443,71.8394474 4.05302443,69.5871596 C4.05302443,67.3348717 5.82493521,65.4382083 7.92907927,65.4382083 C10.0332233,65.4382083 11.8051341,67.3348717 11.8051341,69.5871596 C11.8051341,71.8394474 10.0332233,73.7361109 7.92907927,73.7361109 Z M36.058163,76.6996475 C36.058163,78.0036037 35.0614632,79.0704769 33.8432745,79.0704769 C32.6250858,79.0704769 31.628386,78.0036037 31.628386,76.6996475 C31.628386,75.3956914 32.6250858,74.3288182 33.8432745,74.3288182 C35.0614632,74.3288182 36.058163,75.3956914 36.058163,76.6996475 Z M22.8795765,56.3105154 C21.7721323,57.3773886 20.4431992,57.9700959 19.0035217,57.9700959 C17.4530997,57.9700959 15.9026778,57.2588471 14.7952336,56.0734325 C12.6910895,53.5840617 12.8018339,49.7907348 15.0167224,47.4199055 C16.1241666,46.3530323 17.4530997,45.760325 18.8927772,45.760325 C20.4431992,45.760325 21.9936211,46.4715738 23.1010654,47.6569884 C25.3159538,50.1463592 25.2052094,54.0582276 22.8795765,56.3105154 Z M19.0035217,16.2435 C17.785333,16.2435 16.7886332,15.1766268 16.7886332,13.8726707 C16.7886332,12.5687145 17.785333,11.5018413 19.0035217,11.5018413 C20.2217103,11.5018413 21.2184102,12.5687145 21.2184102,13.8726707 C21.1076657,15.1766268 20.2217103,16.2435 19.0035217,16.2435 Z M33.7325301,31.0611832 C32.8465747,31.8909735 31.4068972,31.8909735 30.6316862,30.9426417 C29.8564752,29.99431 29.8564752,28.5718124 30.7424306,27.6234807 C31.1854083,27.2678563 31.628386,27.0307734 32.1821081,27.0307734 C32.7358303,27.0307734 33.4002968,27.2678563 33.7325301,27.7420222 C34.6184855,28.6903539 34.507741,30.1128515 33.7325301,31.0611832 Z M81.3526324,41.9669981 C85.0071984,41.9669981 87.9972978,45.1676176 87.9972978,49.079486 C87.9972978,52.9913544 85.0071984,56.191974 81.3526324,56.191974 C77.6980664,56.191974 74.707967,52.9913544 74.707967,49.079486 C74.707967,45.1676176 77.6980664,41.9669981 81.3526324,41.9669981 Z M65.7376686,32.9578467 C66.4021352,32.2465979 67.398835,31.8909735 68.3955348,31.8909735 C69.502979,31.8909735 70.4996788,32.3651393 71.1641454,33.1949296 C72.6038229,34.8545101 72.4930785,37.4624224 70.9426565,39.0034614 C70.27819,39.7147102 69.2814902,40.0703346 68.2847904,40.0703346 C67.1773461,40.0703346 66.1806463,39.5961687 65.5161798,38.7663785 C64.0765022,36.9882565 64.1872467,34.4988857 65.7376686,32.9578467 Z M62.3045915,36.0399248 C62.3045915,37.5809638 62.8583136,39.1220029 63.9657578,40.3074175 C65.0732021,41.6113737 66.7343684,42.3226225 68.3955348,42.3226225 C69.8352123,42.3226225 71.1641454,41.7299151 72.2715896,40.7815834 L74.4864781,43.1524127 C73.3790339,44.6934518 72.6038229,46.7086567 72.6038229,48.9609445 C72.6038229,49.9092763 72.7145673,50.7390665 72.9360562,51.6873983 L57.4318368,58.9184277 C56.2136481,56.7846813 54.2202485,55.2436422 51.8946156,54.7694764 L53.2235487,34.2618028 L62.3045915,36.0399248 Z M50.0119604,6.76018271 C50.0119604,4.50789486 51.6731268,2.72977287 53.7772708,2.72977287 C55.8814149,2.72977287 57.5425812,4.50789486 57.5425812,6.76018271 C57.5425812,9.01247056 55.8814149,10.7905925 53.7772708,10.7905925 C51.6731268,10.7905925 50.0119604,9.01247056 50.0119604,6.76018271 Z M39.712729,53.3469788 C38.4945403,53.3469788 37.4978405,52.2801056 37.4978405,50.9761495 C37.4978405,49.6721933 38.4945403,48.6053201 39.712729,48.6053201 C40.9309176,48.6053201 41.9276174,49.6721933 41.9276174,50.9761495 C41.9276174,52.2801056 40.9309176,53.3469788 39.712729,53.3469788 Z M54.7739706,93.5325357 C54.7739706,95.7848235 53.1128043,97.5629455 51.0086602,97.5629455 C48.9045162,97.5629455 47.2433498,95.7848235 47.2433498,93.5325357 C47.2433498,91.2802478 48.9045162,89.5021258 51.0086602,89.5021258 C53.1128043,89.5021258 54.7739706,91.2802478 54.7739706,93.5325357 Z M50.3441937,70.1798669 C46.9111165,70.1798669 44.1425059,67.2163303 44.1425059,63.5415448 C44.1425059,59.8667594 46.9111165,56.9032227 50.3441937,56.9032227 C53.7772708,56.9032227 56.435137,59.9853009 56.435137,63.6600863 C56.435137,67.3348717 53.6665264,70.1798669 50.3441937,70.1798669 Z M93.2022858,77.0552719 C90.9873973,77.0552719 89.2154865,75.1586085 89.2154865,72.7877792 C89.2154865,70.4169498 90.9873973,68.5202864 93.2022858,68.5202864 C95.4171742,68.5202864 97.189085,70.4169498 97.189085,72.7877792 C97.189085,75.1586085 95.3064298,77.0552719 93.2022858,77.0552719 Z" id="Shape"></path>
        </g>
    </g>
</svg>