<?xml version="1.0" standalone="no"?>
<!DOCTYPE svg PUBLIC "-//W3C//DTD SVG 20010904//EN"
 "http://www.w3.org/TR/2001/REC-SVG-20010904/DTD/svg10.dtd">
<svg version="1.0" xmlns="http://www.w3.org/2000/svg"
 width="741.000000pt" height="741.000000pt" viewBox="0 0 741.000000 741.000000"
 preserveAspectRatio="xMidYMid meet">
<metadata>
Created by potrace 1.11, written by Peter Selinger 2001-2013
</metadata>
<g transform="translate(0.000000,741.000000) scale(0.100000,-0.100000)"
fill="#000000" stroke="none">
<path d="M3302 7389 c-143 -13 -257 -30 -367 -53 -39 -8 -82 -17 -95 -20 -78
-16 -239 -63 -347 -100 -385 -135 -754 -348 -1103 -636 -129 -106 -387 -359
-496 -485 -187 -217 -364 -478 -474 -698 -23 -45 -45 -89 -50 -97 -98 -178
-262 -690 -287 -890 -2 -19 -8 -51 -13 -70 -4 -19 -11 -60 -15 -90 -3 -30 -9
-73 -12 -95 -26 -186 -34 -449 -19 -640 7 -100 9 -116 21 -210 13 -98 16 -121
31 -205 9 -47 18 -98 21 -115 2 -16 22 -97 43 -180 178 -690 562 -1333 1111
-1861 80 -77 103 -97 214 -186 55 -44 108 -86 117 -93 29 -24 227 -155 233
-155 4 0 25 -13 48 -29 141 -96 539 -267 765 -327 28 -8 78 -21 110 -29 31 -9
73 -18 92 -21 19 -3 38 -8 41 -9 9 -6 237 -43 304 -50 33 -4 71 -8 85 -11 160
-25 768 -25 895 1 11 3 37 7 58 10 65 9 187 35 287 61 52 14 105 27 117 30 18
3 329 103 368 118 6 2 13 4 17 5 4 1 73 29 152 61 400 163 703 346 931 562
l86 81 -165 161 c-90 88 -306 301 -480 472 l-315 312 107 47 c59 27 140 64
181 82 l74 35 421 -421 c232 -232 426 -421 432 -421 21 0 248 298 379 499 72
110 235 393 235 408 0 2 12 30 26 61 82 177 194 519 228 692 3 14 12 58 21 98
16 74 51 274 60 341 3 20 8 59 11 87 l6 51 -1607 0 -1607 0 566 -566 567 -567
-73 -31 c-40 -17 -123 -54 -184 -81 l-111 -50 -251 247 c-534 525 -1166 1148
-1208 1191 l-44 45 0 1871 0 1872 -32 -2 c-18 0 -66 -4 -106 -7z m38 -2179 l0
-1600 74 -72 c41 -40 295 -291 565 -558 271 -267 575 -567 677 -667 160 -157
183 -183 167 -191 -13 -8 -624 -279 -938 -417 -16 -7 -65 -29 -108 -49 -44
-20 -80 -36 -82 -36 -2 0 -38 -16 -79 -35 -42 -19 -78 -35 -80 -35 -2 0 -37
-15 -78 -34 -111 -51 -170 -76 -180 -76 -5 0 -29 16 -51 36 -23 19 -76 52
-117 72 -71 35 -75 39 -76 72 -3 64 -15 225 -19 240 -2 8 -6 60 -10 115 -4 55
-8 116 -10 135 -2 19 -6 78 -10 130 -4 52 -9 109 -10 125 -2 17 -6 68 -9 115
-4 47 -9 105 -11 130 -2 25 -7 79 -10 120 -3 41 -8 95 -10 120 -2 25 -7 79
-10 120 -3 41 -8 95 -10 120 -2 25 -6 77 -9 115 -4 39 -8 97 -11 130 -3 33 -8
94 -11 136 l-5 76 41 27 c54 35 123 131 148 204 27 81 24 206 -6 282 -64 160
-203 259 -374 266 -128 5 -232 -36 -319 -127 l-46 -47 -242 54 c-134 30 -253
56 -265 58 -11 3 -122 27 -246 55 -124 28 -241 54 -260 57 -53 9 -60 16 -84
86 -40 119 -126 210 -247 259 -42 17 -75 23 -144 23 -110 1 -156 -12 -237 -67
-117 -79 -179 -190 -184 -334 -14 -364 414 -567 694 -328 45 40 40 39 167 10
39 -8 93 -20 120 -25 28 -6 77 -17 110 -25 33 -8 146 -33 250 -56 105 -23 195
-42 200 -44 6 -1 21 -5 35 -8 14 -4 79 -18 145 -32 129 -29 135 -31 135 -47 0
-6 12 -35 26 -65 32 -69 115 -152 181 -184 41 -19 52 -29 54 -49 0 -14 2 -36
4 -50 1 -14 5 -63 9 -110 4 -47 9 -105 11 -130 2 -25 7 -81 10 -125 3 -44 7
-100 9 -125 3 -25 8 -79 11 -120 3 -41 8 -95 10 -120 6 -61 19 -224 30 -375 3
-44 8 -100 10 -125 2 -25 7 -72 9 -105 3 -33 8 -91 11 -130 3 -38 7 -92 10
-120 2 -27 6 -84 10 -125 3 -41 8 -95 10 -120 l3 -45 -61 -29 c-90 -43 -194
-149 -241 -248 -175 -364 94 -788 499 -788 68 0 194 33 258 67 28 16 78 53
112 84 108 102 162 219 173 377 l7 94 220 98 c121 53 472 209 780 345 308 136
583 258 612 271 28 13 55 24 60 24 13 0 913 -886 913 -900 0 -3 -23 -26 -51
-51 -234 -201 -534 -373 -902 -516 -85 -33 -302 -109 -337 -119 -8 -2 -71 -20
-140 -39 -114 -33 -248 -65 -325 -79 -105 -20 -148 -26 -215 -33 -134 -14
-695 -6 -790 12 -14 2 -47 7 -74 10 -74 8 -237 35 -276 45 -19 5 -48 11 -65
13 -55 8 -259 66 -365 103 -478 168 -859 410 -1230 783 -627 630 -996 1373
-1105 2226 -4 28 -8 61 -10 75 -23 179 -23 538 0 685 2 11 6 47 10 80 3 33 8
67 10 75 2 8 6 38 10 65 3 28 15 93 26 146 11 52 21 104 23 115 23 111 105
366 169 524 62 152 78 182 96 175 9 -4 88 -31 176 -62 88 -30 206 -71 263 -90
59 -20 107 -32 111 -27 4 5 18 41 30 79 35 107 151 338 229 455 249 372 605
679 1062 917 198 103 529 216 726 249 133 22 203 32 232 33 l32 1 0 -1600z
m3934 -1879 c-2 -20 -6 -47 -9 -61 -6 -28 -11 -57 -19 -110 -8 -54 -23 -126
-46 -230 -12 -52 -23 -102 -25 -110 -11 -52 -77 -268 -108 -355 -120 -334
-324 -688 -595 -1028 l-54 -69 -369 369 c-203 202 -369 371 -369 374 0 3 64
34 143 69 78 35 171 76 207 92 36 15 72 32 80 37 10 5 31 -3 66 -26 189 -125
448 -78 576 106 105 150 100 358 -12 499 -48 60 -127 115 -201 141 -76 26
-203 22 -281 -8 -139 -54 -244 -188 -264 -339 -6 -46 -7 -48 -62 -71 -32 -14
-84 -37 -117 -52 -33 -15 -138 -61 -234 -104 l-175 -76 -494 494 -494 494
1430 0 1430 0 -4 -36z m-4273 -2008 c141 -63 213 -233 159 -375 -26 -69 -92
-141 -158 -171 -68 -32 -190 -30 -252 3 -109 59 -165 150 -165 270 0 93 25
151 90 214 85 83 219 107 326 59z"/>
<path d="M3940 5684 l0 -1714 1726 0 1726 0 -6 58 c-11 96 -18 153 -32 247
-112 760 -494 1506 -1064 2075 -69 69 -154 150 -190 180 -35 30 -71 61 -78 68
-25 23 -165 127 -242 179 -435 296 -954 493 -1540 583 -106 16 -117 18 -195
26 -38 3 -78 8 -87 10 -17 3 -18 -84 -18 -1712z m440 1551 c14 -3 41 -8 60
-11 73 -13 339 -84 440 -117 365 -122 657 -273 960 -496 169 -125 393 -332
530 -491 36 -41 68 -77 71 -80 3 -3 46 -57 96 -121 251 -325 440 -674 568
-1051 25 -73 47 -142 50 -153 2 -11 18 -74 35 -140 29 -114 71 -340 84 -452
l6 -53 -395 0 -395 0 0 895 0 895 -225 0 -225 0 0 -895 0 -895 -125 0 -125 0
0 1265 0 1265 -225 0 -225 0 0 -1265 0 -1265 -125 0 -125 0 0 610 0 610 -225
0 -225 0 0 -610 0 -610 -125 0 -125 0 0 1495 0 1495 -175 0 -175 0 0 108 c0
60 2 111 5 114 5 4 266 -32 335 -47z"/>
</g>
</svg>
