<?xml version="1.0" encoding="UTF-8"?>
<svg width="100px" height="100px" viewBox="0 0 100 100" version="1.1" xmlns="http://www.w3.org/2000/svg" xmlns:xlink="http://www.w3.org/1999/xlink">
    <!-- Generator: Sketch 48.2 (47327) - http://www.bohemiancoding.com/sketch -->
    <title>Group</title>
    <desc>Created with Sketch.</desc>
    <defs></defs>
    <g id="Artboard" stroke="none" stroke-width="1" fill="none" fill-rule="evenodd" transform="translate(0.000000, 1.000000)">
        <g id="Group" fill="#000000">
            <g id="Graph-noun_633378_cc" transform="translate(0.000000, 13.694497)" fill-rule="nonzero">
                <path d="M98.7825748,82.2730981 L1.21953796,82.2730981 C0.546005743,82.2730981 0,81.7270924 0,81.0535601 C0,80.3800279 0.546005743,79.8340222 1.21953796,79.8340222 L98.7825748,79.8340222 C99.4561071,79.8340222 100.002113,80.3800279 100.002113,81.0535601 C100.002113,81.7270924 99.4561071,82.2730981 98.7825748,82.2730981 Z" id="Shape"></path>
                <path d="M16.9759684,82.2730981 C16.3024362,82.2730981 15.7564305,81.7270924 15.7564305,81.0535601 L15.7564305,44.1625368 L9.04897167,44.1625368 L9.04897167,81.0535601 C9.04897167,81.7270924 8.50296593,82.2730981 7.82943371,82.2730981 C7.15590149,82.2730981 6.60989575,81.7270924 6.60989575,81.0535601 L6.60989575,42.9429989 C6.60989575,42.2694666 7.15590149,41.7234609 7.82943371,41.7234609 L16.9759684,41.7234609 C17.6495006,41.7234609 18.1955064,42.2694666 18.1955064,42.9429989 L18.1955064,81.0535601 C18.1955064,81.7270924 17.6495006,82.2730981 16.9759684,82.2730981 Z" id="Shape"></path>
                <path d="M34.2446259,82.2730981 C33.5710937,82.2730981 33.025088,81.7270924 33.025088,81.0535601 L33.025088,34.0037856 L26.3176292,34.0037856 L26.3176292,81.0535601 C26.3176292,81.7270924 25.7716235,82.2730981 25.0980912,82.2730981 C24.424559,82.2730981 23.8785533,81.7270924 23.8785533,81.0535601 L23.8785533,32.7842476 C23.8785533,32.1107154 24.424559,31.5647097 25.0980912,31.5647097 L34.2446259,31.5647097 C34.9181582,31.5647097 35.4641639,32.1107154 35.4641639,32.7842476 L35.4641639,81.0535601 C35.4641639,81.7270924 34.9181582,82.2730981 34.2446259,82.2730981 Z" id="Shape"></path>
                <path d="M51.5254789,82.2730981 C50.8519466,82.2730981 50.3059409,81.7270924 50.3059409,81.0535601 L50.3059409,51.2724431 L43.5984821,51.2724431 L43.5984821,81.0535601 C43.5984821,81.7270924 43.0524764,82.2730981 42.3789441,82.2730981 C41.7054119,82.2730981 41.1594062,81.7270924 41.1594062,81.0535601 L41.1594062,50.0529052 C41.1594062,49.379373 41.7054119,48.8333672 42.3789441,48.8333672 L51.5254789,48.8333672 C52.1990111,48.8333672 52.7450168,49.379373 52.7450168,50.0529052 L52.7450168,81.0535601 C52.7450168,81.7270924 52.1990111,82.2730981 51.5254789,82.2730981 Z" id="Shape"></path>
                <path d="M68.8063318,82.2730981 C68.1327995,82.2730981 67.5867938,81.7270924 67.5867938,81.0535601 L67.5867938,34.0037856 L60.879335,34.0037856 L60.879335,81.0535601 C60.879335,81.7270924 60.3333293,82.2730981 59.6597971,82.2730981 C58.9862648,82.2730981 58.4402591,81.7270924 58.4402591,81.0535601 L58.4402591,32.7842476 C58.4402591,32.1107154 58.9862648,31.5647097 59.6597971,31.5647097 L68.8063318,31.5647097 C69.479864,31.5647097 70.0258697,32.1107154 70.0258697,32.7842476 L70.0258697,81.0535601 C70.0258697,81.7270924 69.479864,82.2730981 68.8063318,82.2730981 Z" id="Shape"></path>
                <path d="M86.0749893,82.2730981 C85.4014571,82.2730981 84.8554513,81.7270924 84.8554513,81.0535601 L84.8554513,18.7595611 L78.1479925,18.7595611 L78.1479925,81.0535601 C78.1479925,81.7270924 77.6019868,82.2730981 76.9284546,82.2730981 C76.2549224,82.2730981 75.7089166,81.7270924 75.7089166,81.0535601 L75.7089166,17.5400231 C75.7089166,16.8664909 76.2549224,16.3204852 76.9284546,16.3204852 L86.0749893,16.3204852 C86.7485215,16.3204852 87.2945273,16.8664909 87.2945273,17.5400231 L87.2945273,81.0535601 C87.2945273,81.7270924 86.7485215,82.2730981 86.0749893,82.2730981 Z" id="Shape"></path>
                <path d="M46.9522115,38.064847 C46.6166079,38.0572633 46.2989703,37.9116795 46.0741442,37.6623995 L29.5737956,19.2107901 L13.2075961,33.6989011 C12.6991525,34.1084243 11.9583807,34.0449002 11.5270842,33.5547905 C11.0957876,33.0646808 11.1269619,32.3218442 11.597806,31.8695942 L28.8786589,16.6253697 C29.38077,16.1784155 30.1498742,16.2220526 30.5982074,16.7229327 L46.9887976,35.0647836 L80.63585,0.429905535 C80.9408392,0.118380751 81.3888574,-0.00677017859 81.8111404,0.101595893 C82.2334234,0.209961965 82.5658164,0.535381653 82.6831101,0.9552725 C82.8004038,1.37516335 82.6847786,1.82573394 82.3797893,2.13725868 L47.8302788,37.6989856 C47.5991785,37.9347664 47.2823573,38.0667752 46.9522115,38.064847 Z" id="Shape"></path>
                <path d="M81.5017219,11.4667241 C80.8281897,11.4667241 80.282184,10.9207183 80.282184,10.2471861 L80.282184,2.49092469 L72.5259225,2.49092469 C71.8523903,2.49092469 71.3063846,1.94491895 71.3063846,1.27138673 C71.3063846,0.59785451 71.8523903,0.0518487668 72.5259225,0.0518487668 L81.5017219,0.0518487668 C82.1752542,0.0518487668 82.7212599,0.59785451 82.7212599,1.27138673 L82.7212599,10.2471861 C82.7212599,10.9207183 82.1752542,11.4667241 81.5017219,11.4667241 Z" id="Shape"></path>
            </g>
            <g id="Jounal" transform="translate(13.602977, 15.372698) rotate(-360.000000) translate(-13.602977, -15.372698) translate(3.602977, 0.372698)">
                <path d="M2.58198592,1.7190001 L17.1865152,1.7190001 C17.6628144,1.7190001 18.049501,2.10543751 18.049501,2.57999853 L18.049501,26.6430032 C18.049501,27.1188855 17.6641554,27.5040016 17.1865152,27.5040016 L2.58198592,27.5040016 C2.10568678,27.5040016 1.7190001,27.1175642 1.7190001,26.6430032 L1.7190001,2.57999853 C1.7190001,2.10411619 2.10434572,1.7190001 2.58198592,1.7190001 Z M0,26.6430032 C0,28.0671899 1.15655729,29.2230017 2.58198592,29.2230017 L17.1865152,29.2230017 C18.6133038,29.2230017 19.7685011,28.0684924 19.7685011,26.6430032 L19.7685011,2.57999853 C19.7685011,1.15581173 18.6119439,0 17.1865152,0 L2.58198592,0 C1.15519738,0 0,1.1545093 0,2.57999853 L0,26.6430032 Z" id="Shape"></path>
                <path d="M7.41292582,4.48604109 C7.09902038,4.23490304 6.65298042,4.23490304 6.33907497,4.48604109 L5.58675032,5.09277104 L5.58675032,1.71904693 C5.58675032,1.24433229 5.20193904,0.85950005 4.72725027,0.85950005 C4.2525615,0.85950005 3.86775022,1.24433229 3.86775022,1.71904693 L3.86775022,6.87632818 C3.86775022,7.59706357 4.70140657,7.99776137 5.2641757,7.54752152 L6.88563703,6.26570123 L8.48782509,7.54752152 C9.05059423,7.99776137 9.88425057,7.59706357 9.88425057,6.87632818 L9.88425057,1.71904693 C9.88425057,1.24433229 9.49943929,0.85950005 9.02475052,0.85950005 C8.55006175,0.85950005 8.16525047,1.24433229 8.16525047,1.71904693 L8.16525047,5.09277104 L7.41292582,4.48604109 Z M15.9007509,1.72054539 C15.9007509,1.24583076 15.5159396,0.860998511 15.0412509,0.860998511 C14.5665621,0.860998511 14.1817508,1.24583076 14.1817508,1.72054539 L14.1817508,27.5039548 C14.1817508,27.9786694 14.5665621,28.3635016 15.0412509,28.3635016 C15.5159396,28.3635016 15.9007509,27.9786694 15.9007509,27.5039548 L15.9007509,1.72054539 Z" id="Shape"></path>
            </g>
        </g>
    </g>
</svg>