<?xml version="1.0" encoding="UTF-8"?>
<svg width="100px" height="100px" viewBox="0 0 100 100" version="1.1" xmlns="http://www.w3.org/2000/svg" xmlns:xlink="http://www.w3.org/1999/xlink">
    <!-- Generator: Sketch 48.2 (47327) - http://www.bohemiancoding.com/sketch -->
    <title>Group</title>
    <desc>Created with Sketch.</desc>
    <defs></defs>
    <g id="Artboard" stroke="none" stroke-width="1" fill="none" fill-rule="evenodd" transform="translate(0.000000, 1.000000)">
        <g id="Group" fill="#000000" fill-rule="nonzero">
            <g id="Graph-noun_633378_cc" transform="translate(0.000000, 13.694497)">
                <path d="M98.7825748,82.2730981 L1.21953796,82.2730981 C0.546005743,82.2730981 0,81.7270924 0,81.0535601 C0,80.3800279 0.546005743,79.8340222 1.21953796,79.8340222 L98.7825748,79.8340222 C99.4561071,79.8340222 100.002113,80.3800279 100.002113,81.0535601 C100.002113,81.7270924 99.4561071,82.2730981 98.7825748,82.2730981 Z" id="Shape"></path>
                <path d="M16.9759684,82.2730981 C16.3024362,82.2730981 15.7564305,81.7270924 15.7564305,81.0535601 L15.7564305,44.1625368 L9.04897167,44.1625368 L9.04897167,81.0535601 C9.04897167,81.7270924 8.50296593,82.2730981 7.82943371,82.2730981 C7.15590149,82.2730981 6.60989575,81.7270924 6.60989575,81.0535601 L6.60989575,42.9429989 C6.60989575,42.2694666 7.15590149,41.7234609 7.82943371,41.7234609 L16.9759684,41.7234609 C17.6495006,41.7234609 18.1955064,42.2694666 18.1955064,42.9429989 L18.1955064,81.0535601 C18.1955064,81.7270924 17.6495006,82.2730981 16.9759684,82.2730981 Z" id="Shape"></path>
                <path d="M34.2446259,82.2730981 C33.5710937,82.2730981 33.025088,81.7270924 33.025088,81.0535601 L33.025088,34.0037856 L26.3176292,34.0037856 L26.3176292,81.0535601 C26.3176292,81.7270924 25.7716235,82.2730981 25.0980912,82.2730981 C24.424559,82.2730981 23.8785533,81.7270924 23.8785533,81.0535601 L23.8785533,32.7842476 C23.8785533,32.1107154 24.424559,31.5647097 25.0980912,31.5647097 L34.2446259,31.5647097 C34.9181582,31.5647097 35.4641639,32.1107154 35.4641639,32.7842476 L35.4641639,81.0535601 C35.4641639,81.7270924 34.9181582,82.2730981 34.2446259,82.2730981 Z" id="Shape"></path>
                <path d="M51.5254789,82.2730981 C50.8519466,82.2730981 50.3059409,81.7270924 50.3059409,81.0535601 L50.3059409,51.2724431 L43.5984821,51.2724431 L43.5984821,81.0535601 C43.5984821,81.7270924 43.0524764,82.2730981 42.3789441,82.2730981 C41.7054119,82.2730981 41.1594062,81.7270924 41.1594062,81.0535601 L41.1594062,50.0529052 C41.1594062,49.379373 41.7054119,48.8333672 42.3789441,48.8333672 L51.5254789,48.8333672 C52.1990111,48.8333672 52.7450168,49.379373 52.7450168,50.0529052 L52.7450168,81.0535601 C52.7450168,81.7270924 52.1990111,82.2730981 51.5254789,82.2730981 Z" id="Shape"></path>
                <path d="M68.8063318,82.2730981 C68.1327995,82.2730981 67.5867938,81.7270924 67.5867938,81.0535601 L67.5867938,34.0037856 L60.879335,34.0037856 L60.879335,81.0535601 C60.879335,81.7270924 60.3333293,82.2730981 59.6597971,82.2730981 C58.9862648,82.2730981 58.4402591,81.7270924 58.4402591,81.0535601 L58.4402591,32.7842476 C58.4402591,32.1107154 58.9862648,31.5647097 59.6597971,31.5647097 L68.8063318,31.5647097 C69.479864,31.5647097 70.0258697,32.1107154 70.0258697,32.7842476 L70.0258697,81.0535601 C70.0258697,81.7270924 69.479864,82.2730981 68.8063318,82.2730981 Z" id="Shape"></path>
                <path d="M86.0749893,82.2730981 C85.4014571,82.2730981 84.8554513,81.7270924 84.8554513,81.0535601 L84.8554513,18.7595611 L78.1479925,18.7595611 L78.1479925,81.0535601 C78.1479925,81.7270924 77.6019868,82.2730981 76.9284546,82.2730981 C76.2549224,82.2730981 75.7089166,81.7270924 75.7089166,81.0535601 L75.7089166,17.5400231 C75.7089166,16.8664909 76.2549224,16.3204852 76.9284546,16.3204852 L86.0749893,16.3204852 C86.7485215,16.3204852 87.2945273,16.8664909 87.2945273,17.5400231 L87.2945273,81.0535601 C87.2945273,81.7270924 86.7485215,82.2730981 86.0749893,82.2730981 Z" id="Shape"></path>
                <path d="M46.9522115,38.064847 C46.6166079,38.0572633 46.2989703,37.9116795 46.0741442,37.6623995 L29.5737956,19.2107901 L13.2075961,33.6989011 C12.6991525,34.1084243 11.9583807,34.0449002 11.5270842,33.5547905 C11.0957876,33.0646808 11.1269619,32.3218442 11.597806,31.8695942 L28.8786589,16.6253697 C29.38077,16.1784155 30.1498742,16.2220526 30.5982074,16.7229327 L46.9887976,35.0647836 L80.63585,0.429905535 C80.9408392,0.118380751 81.3888574,-0.00677017859 81.8111404,0.101595893 C82.2334234,0.209961965 82.5658164,0.535381653 82.6831101,0.9552725 C82.8004038,1.37516335 82.6847786,1.82573394 82.3797893,2.13725868 L47.8302788,37.6989856 C47.5991785,37.9347664 47.2823573,38.0667752 46.9522115,38.064847 Z" id="Shape"></path>
                <path d="M81.5017219,11.4667241 C80.8281897,11.4667241 80.282184,10.9207183 80.282184,10.2471861 L80.282184,2.49092469 L72.5259225,2.49092469 C71.8523903,2.49092469 71.3063846,1.94491895 71.3063846,1.27138673 C71.3063846,0.59785451 71.8523903,0.0518487668 72.5259225,0.0518487668 L81.5017219,0.0518487668 C82.1752542,0.0518487668 82.7212599,0.59785451 82.7212599,1.27138673 L82.7212599,10.2471861 C82.7212599,10.9207183 82.1752542,11.4667241 81.5017219,11.4667241 Z" id="Shape"></path>
            </g>
            <g id="Key---words" transform="translate(1.307875, 1.684753)">
                <polygon id="Shape" points="2.88044517 19.2561744 7.38164218 23.8116801 13.8261368 17.3880413 9.29141237 12.8659884"></polygon>
                <path d="M1.72263271,9.98402844 C1.93918389,10.1995594 2.28898697,10.1995594 2.50553821,9.98402844 L2.89417818,9.59721948 L3.67152586,10.3708711 L3.28285202,10.7521821 C3.17735535,10.8571818 3.12184503,11.0008691 3.12184503,11.1445564 C3.12184503,11.2937417 3.17735535,11.4318973 3.28285202,11.536897 L4.84307134,13.0897656 C4.94856802,13.1947652 5.09293552,13.2500478 5.23730301,13.2500478 C5.37611268,13.2500478 5.52048017,13.1947653 5.62597685,13.0897656 L7.58517229,11.1398006 L2.5139427,6.0902372 C2.37984362,5.95838893 2.26126574,5.81490397 2.15336288,5.66487551 L0.16241339,7.64644497 C-0.0541377965,7.86197592 -0.0541377965,8.2156626 0.16241339,8.43115983 L1.72263271,9.98402844 Z" id="Shape"></path>
                <path d="M26.1478539,5.04289288 C26.8735491,4.30998442 26.8735491,3.12178274 26.1478539,2.39443203 L24.2864998,0.528865279 C23.582985,-0.176288426 22.3531612,-0.176288426 21.6441013,0.528865279 L19.3949975,2.78865792 L23.8987501,7.29712778 L26.1478539,5.04289288 Z" id="Shape"></path>
                <rect id="Rectangle-path" transform="translate(18.530864, 8.113254) rotate(-45.034433) translate(-18.530864, -8.113254) " x="15.2663594" y="4.8967568" width="6.52900906" height="6.43299422"></rect>
                <path d="M0.0122617528,26.0213633 C-0.0269469384,26.2058305 0.0290459713,26.3958587 0.163456264,26.5300043 C0.269870101,26.6362085 0.415492685,26.6921253 0.56111527,26.6921253 C0.594717871,26.6921253 0.633926562,26.6865302 0.667529107,26.6809351 L2.88044517,26.2385823 L0.453128936,23.8116801 L0.0122617528,26.0213633 Z" id="Shape"></path>
                <path d="M1.10637243,21.0865537 C1.02837955,21.164138 0.972631486,21.2638748 0.955930851,21.3691581 L0.777598243,22.2335772 C0.744162979,22.4164449 0.79987705,22.6048253 0.93361805,22.7322949 L3.97636103,25.7632914 C4.08224494,25.8685747 4.22714234,25.9240066 4.37203974,25.9240066 C4.41101918,25.9240066 4.44445439,25.9240066 4.48346788,25.9129135 L5.34727394,25.7411389 C5.45870208,25.7189526 5.55346359,25.6691012 5.63145646,25.5915169 L6.6250239,24.6035852 L2.13164044,20.0671014 L1.10637243,21.0865537 Z" id="Shape"></path>
                <path d="M17.282671,13.0908812 L6.36960384,2.16292075 C5.53516744,1.32734298 4.07768793,1.32734298 3.24325153,2.16292075 C2.82046497,2.58070964 2.59240066,3.13776148 2.59240066,3.73381102 C2.59240066,4.32428464 2.82046497,4.88133648 3.24325153,5.29912537 L14.1509202,16.2265078 C14.4893327,15.5648048 14.9282131,14.9509733 15.4681725,14.4101734 C16.0083017,13.8693054 16.6215663,13.4297567 17.282671,13.0908812 Z" id="Shape"></path>
                <path d="M24.9023381,15.2270666 C23.7537611,14.0723801 22.2204648,13.4420775 20.5923925,13.4420775 C18.9643201,13.4420775 17.4365708,14.07238 16.2824468,15.2270666 C15.1338699,16.3761695 14.4982407,17.9101679 14.4982407,19.5390198 C14.4982407,21.1678376 15.1338699,22.701836 16.2824468,23.8509389 C17.4365708,25.0056254 18.9643201,25.6359621 20.5923925,25.6359621 C22.2204648,25.6359621 23.7537611,25.0056254 24.9023381,23.8509389 C26.0564961,22.701836 26.6921253,21.1678376 26.6921253,19.5390198 C26.6921253,17.9101679 26.0564961,16.3761695 24.9023381,15.2270666 Z M22.5550226,21.5025146 C22.0309127,22.0268644 21.3339599,22.3113569 20.5923925,22.3113569 C19.8508251,22.3113569 19.1594534,22.0268644 18.6353434,21.5025146 C17.5536712,20.4203471 17.5536712,18.6576584 18.6353434,17.5754909 C19.1594533,17.0511411 19.8508251,16.7666486 20.5923925,16.7666486 C21.3339599,16.7666486 22.0309127,17.0511411 22.5550226,17.5754909 C23.6366948,18.6576585 23.6366948,20.4203471 22.5550226,21.5025146 Z" id="Shape"></path>
            </g>
        </g>
    </g>
</svg>