<?xml version="1.0" encoding="UTF-8"?>
<svg width="100px" height="100px" viewBox="0 0 100 100" version="1.1" xmlns="http://www.w3.org/2000/svg" xmlns:xlink="http://www.w3.org/1999/xlink">
    <!-- Generator: Sketch 48.2 (47327) - http://www.bohemiancoding.com/sketch -->
    <title>Artboard</title>
    <desc>Created with Sketch.</desc>
    <defs></defs>
    <g id="Page-1" stroke="none" stroke-width="1" fill="none" fill-rule="evenodd">
        <g id="noun_297916_cc" transform="translate(5.000000, 0.000000)"></g>
        <g id="Artboard" fill="#000000">
            <g id="Group" transform="translate(2.000000, 46.000000)" fill-rule="nonzero">
                <path d="M32.3114224,7.09321193 C31.5803167,7.33558428 31.0997711,8.0428676 31.137931,8.82039608 L31.137931,27.8194218 L2.12068966,27.8194218 C1.17803574,27.8195171 0.413887298,28.592748 0.413793103,29.546606 L0.520474138,50.2728158 C0.520568333,51.2266738 1.28471677,51.9999047 2.22737069,52 L94.2931034,52 C95.2357574,51.9999047 95.9999058,51.2266738 96,50.2728158 L96,29.546606 C95.9999058,28.592748 95.2357574,27.8195171 94.2931034,27.8194218 L65.2758621,27.8194218 L65.2758621,8.82039608 C65.2757679,7.8665381 64.5116194,7.09330724 63.5689655,7.09321193 L32.8448276,7.09321193 C32.6681243,7.06492936 32.4881257,7.06492936 32.3114224,7.09321193 Z M34.5517241,10.5475802 L61.862069,10.5475802 L61.862069,29.546606 C61.8621632,30.5004639 62.6263116,31.2736948 63.5689655,31.2737901 L92.5862069,31.2737901 L92.5862069,48.5456317 L3.93426724,48.5456317 L3.82758621,31.2737901 L32.8448276,31.2737901 C33.7874815,31.2736948 34.5516299,30.5004639 34.5517241,29.546606 L34.5517241,10.5475802 Z" id="Shape"></path>
                <path d="M8.14265806,20.8211001 C7.89922619,20.9133873 7.67996259,21.0602902 7.50156839,21.2506192 L0.663278544,28.1229258 C0.146447979,28.5249594 -0.0971082416,29.1879212 0.0357654313,29.831021 C0.168639104,30.4741209 0.654692865,30.9848313 1.28806401,31.1468465 C1.92143515,31.3088616 2.59129844,31.0938327 3.01394068,30.5928328 L9.31798913,24.2572534 L32.6109139,24.2572534 C33.2274454,24.2660134 33.800911,23.9404792 34.1117205,23.4053036 C34.42253,22.8701281 34.42253,22.2082254 34.1117205,21.6730498 C33.800911,21.1378742 33.2274454,20.81234 32.6109139,20.8211001 L8.67689946,20.8211001 C8.49991916,20.7929666 8.31963836,20.7929666 8.14265806,20.8211001 Z" id="Shape"></path>
                <path d="M62.5028372,22.8076262 C62.6439479,23.7564937 63.4904545,24.4055139 64.3935627,24.2572534 L86.6734631,24.2572534 L92.7033444,30.5928328 C93.1076057,31.0938327 93.7483362,31.3088616 94.3541616,31.1468465 C94.959987,30.9848313 95.424902,30.4741209 95.5519969,29.831021 C95.6790918,29.1879212 95.446128,28.5249594 94.9517748,28.1229258 L88.4108866,21.2506192 C88.1012217,20.9634171 87.6995894,20.8099689 87.2866714,20.8211001 L64.3935627,20.8211001 C64.2242794,20.7929666 64.0518391,20.7929666 63.8825558,20.8211001 C62.9794476,20.9693606 62.3617266,21.8587587 62.5028372,22.8076262 Z" id="Shape"></path>
                <path d="M39.1523944,0.0211000738 C38.9097023,0.113387316 38.6911051,0.260290197 38.513253,0.450619234 L31.6957455,7.3229258 C31.1804857,7.72495938 30.9376696,8.38792119 31.0701395,9.03102105 C31.2026093,9.67412091 31.6871859,10.1848313 32.3186322,10.3468465 C32.9500785,10.5088616 33.617906,10.2938327 34.0392637,9.79283278 L40.3241535,3.45725336 L56.0896396,3.45725336 L62.3745294,9.79283278 C62.7958871,10.2938327 63.4637146,10.5088616 64.0951609,10.3468465 C64.7266072,10.1848313 65.2111838,9.67412091 65.3436536,9.03102105 C65.4761235,8.38792119 65.2333074,7.72495938 64.7180476,7.3229258 L57.9005401,0.450619234 C57.5777792,0.163417059 57.1591616,0.00996888324 56.728781,0.0211000738 L39.6850122,0.0211000738 C39.5085697,-0.00703335794 39.3288368,-0.00703335794 39.1523944,0.0211000738 Z" id="Shape"></path>
                <polygon id="Shape" points="12.4137931 34.528 12.4137931 44.928 15.7241379 44.928 15.7241379 34.528"></polygon>
                <polygon id="Shape" points="19.0344828 34.528 19.0344828 44.928 22.3448276 44.928 22.3448276 34.528"></polygon>
                <polygon id="Shape" points="46.3448276 17.472 46.3448276 27.872 49.6551724 27.872 49.6551724 17.472"></polygon>
                <polygon id="Shape" points="70.3448276 34.528 70.3448276 44.928 73.6551724 44.928 73.6551724 34.528"></polygon>
                <polygon id="Shape" points="76.9655172 34.528 76.9655172 44.928 80.2758621 44.928 80.2758621 34.528"></polygon>
                <polygon id="Shape" points="83.5862069 34.528 83.5862069 44.928 86.8965517 44.928 86.8965517 34.528"></polygon>
            </g>
            <g id="Journal-1" transform="translate(37.000000, 1.000000)">
                <path d="M3.39588892,2.29411765 L22.6041111,2.29411765 C23.230551,2.29411765 23.7391304,2.80984355 23.7391304,3.44317616 L23.7391304,35.5568239 C23.7391304,36.1919198 23.2323148,36.7058824 22.6041111,36.7058824 L3.39588892,36.7058824 C2.76944903,36.7058824 2.26086957,36.1901564 2.26086957,35.5568239 L2.26086957,3.44317616 C2.26086957,2.80808017 2.76768523,2.29411765 3.39588892,2.29411765 Z M0,35.5568239 C0,37.4574939 1.52113149,39 3.39588892,39 L22.6041111,39 C24.4806571,39 26,37.4592321 26,35.5568239 L26,3.44317616 C26,1.54250607 24.4788685,0 22.6041111,0 L3.39588892,0 C1.5193429,0 0,1.5407679 0,3.44317616 L0,35.5568239 Z" id="Shape"></path>
                <path d="M10.0688425,5.74687908 C9.64492796,5.40576549 9.04257204,5.40576549 8.61865753,5.74687908 L7.60267857,6.57098292 L7.60267857,1.98855045 C7.60267857,1.34375921 7.08300908,0.821052632 6.44196429,0.821052632 C5.80091949,0.821052632 5.28125,1.34375921 5.28125,1.98855045 L5.28125,8.99353733 C5.28125,9.97249148 6.40706358,10.5167478 7.16705675,9.90519994 L9.35676381,8.16414028 L11.5204432,9.90519994 C12.2804364,10.5167478 13.40625,9.97249148 13.40625,8.99353733 L13.40625,1.98855045 C13.40625,1.34375921 12.8865805,0.821052632 12.2455357,0.821052632 C11.6044909,0.821052632 11.0848214,1.34375921 11.0848214,1.98855045 L11.0848214,6.57098292 L10.0688425,5.74687908 Z M21.53125,1.99058576 C21.53125,1.34579452 21.0115805,0.823087948 20.3705357,0.823087948 C19.7294909,0.823087948 19.2098214,1.34579452 19.2098214,1.99058576 L19.2098214,37.0114496 C19.2098214,37.6562408 19.7294909,38.1789474 20.3705357,38.1789474 C21.0115805,38.1789474 21.53125,37.6562408 21.53125,37.0114496 L21.53125,1.99058576 Z" id="Shape"></path>
            </g>
            <g id="Journal-2" transform="translate(9.000000, 28.000000)">
                <path d="M2.61222224,1.70588235 L17.3877777,1.70588235 C17.8696546,1.70588235 18.2608696,2.08937084 18.2608696,2.56031047 L18.2608696,26.4396895 C18.2608696,26.9119404 17.8710113,27.2941176 17.3877777,27.2941176 L2.61222224,27.2941176 C2.1303454,27.2941176 1.73913043,26.9106292 1.73913043,26.4396895 L1.73913043,2.56031047 C1.73913043,2.08805961 2.12898864,1.70588235 2.61222224,1.70588235 Z M0,26.4396895 C0,27.8530083 1.17010115,29 2.61222224,29 L17.3877777,29 C18.8312747,29 20,27.8543008 20,26.4396895 L20,2.56031047 C20,1.1469917 18.8298989,0 17.3877777,0 L2.61222224,0 C1.1687253,0 0,1.1456992 0,2.56031047 L0,26.4396895 Z" id="Shape"></path>
                <path d="M8.38885555,4.41691841 C8.05189787,4.16683145 7.57310213,4.16683145 7.23614445,4.41691841 L6.42857143,5.021109 L6.42857143,1.66150496 C6.42857143,1.18877716 6.01550081,0.805555556 5.50595238,0.805555556 C4.99640395,0.805555556 4.58333333,1.18877716 4.58333333,1.66150496 L4.58333333,6.79720141 C4.58333333,7.5149203 5.47821079,7.91394106 6.08230793,7.4655856 L7.82284431,6.18913012 L9.54269207,7.4655856 C10.1467892,7.91394106 11.0416667,7.5149203 11.0416667,6.79720141 L11.0416667,1.66150496 C11.0416667,1.18877716 10.628596,0.805555556 10.1190476,0.805555556 C9.60949919,0.805555556 9.19642857,1.18877716 9.19642857,1.66150496 L9.19642857,5.021109 L8.38885555,4.41691841 Z M17.5,1.66299715 C17.5,1.19026935 17.0869294,0.807047745 16.577381,0.807047745 C16.0678325,0.807047745 15.6547619,1.19026935 15.6547619,1.66299715 L15.6547619,27.338495 C15.6547619,27.8112228 16.0678325,28.1944444 16.577381,28.1944444 C17.0869294,28.1944444 17.5,27.8112228 17.5,27.338495 L17.5,1.66299715 Z" id="Shape"></path>
            </g>
            <g id="Journal-3" transform="translate(73.000000, 34.000000)">
                <path d="M2.08977779,1.41176471 L13.9102222,1.41176471 C14.2957237,1.41176471 14.6086957,1.72913449 14.6086957,2.11887763 L14.6086957,21.8811224 C14.6086957,22.2719507 14.2968091,22.5882353 13.9102222,22.5882353 L2.08977779,22.5882353 C1.70427632,22.5882353 1.39130435,22.2708655 1.39130435,21.8811224 L1.39130435,2.11887763 C1.39130435,1.72804933 1.70319091,1.41176471 2.08977779,1.41176471 Z M0,21.8811224 C0,23.0507655 0.936080918,24 2.08977779,24 L13.9102222,24 C15.0650198,24 16,23.0518351 16,21.8811224 L16,2.11887763 C16,0.949234507 15.0639191,0 13.9102222,0 L2.08977779,0 C0.934980243,0 0,0.948164859 0,2.11887763 L0,21.8811224 Z" id="Shape"></path>
                <path d="M6.34564455,3.77386419 C6.08202808,3.56983437 5.70744561,3.56983437 5.44382914,3.77386419 L4.81203008,4.26678432 L4.81203008,1.52590011 C4.81203008,1.14023199 4.48886719,0.827586207 4.09022556,0.827586207 C3.69158394,0.827586207 3.36842105,1.14023199 3.36842105,1.52590011 L3.36842105,5.71578354 C3.36842105,6.30132408 4.06852213,6.62685938 4.54113327,6.26107508 L5.90282964,5.2196974 L7.24834042,6.26107508 C7.72095155,6.62685938 8.42105263,6.30132408 8.42105263,5.71578354 L8.42105263,1.52590011 C8.42105263,1.14023199 8.09788974,0.827586207 7.69924812,0.827586207 C7.3006065,0.827586207 6.97744361,1.14023199 6.97744361,1.52590011 L6.97744361,4.26678432 L6.34564455,3.77386419 Z M13.4736842,1.52711749 C13.4736842,1.14144937 13.1505213,0.828803588 12.7518797,0.828803588 C12.3532381,0.828803588 12.0300752,1.14144937 12.0300752,1.52711749 L12.0300752,22.4740999 C12.0300752,22.859768 12.3532381,23.1724138 12.7518797,23.1724138 C13.1505213,23.1724138 13.4736842,22.859768 13.4736842,22.4740999 L13.4736842,1.52711749 Z" id="Shape"></path>
            </g>
        </g>
    </g>
</svg>