<?xml version="1.0" encoding="UTF-8"?>
<svg width="100px" height="100px" viewBox="0 0 100 100" version="1.1" xmlns="http://www.w3.org/2000/svg" xmlns:xlink="http://www.w3.org/1999/xlink">
    <!-- Generator: Sketch 48.2 (47327) - http://www.bohemiancoding.com/sketch -->
    <title>noun_628599_cc</title>
    <desc>Created with Sketch.</desc>
    <defs></defs>
    <g id="Page-1" stroke="none" stroke-width="1" fill="none" fill-rule="evenodd">
        <g id="noun_628599_cc" transform="translate(0.000000, 5.000000)" fill="#000000">
            <path d="M8.63636364,31.3636364 C8.52272727,31.5909091 8.52272727,31.8181818 8.40909091,32.0454545 C8.29545455,32.2727273 8.18181818,32.6136364 8.18181818,32.8409091 L0.391246036,30.7114074 C0.391246036,18.5202395 0.391246036,10.4014954 0.391246036,0.343955568 L25.6980494,9.16660412 C23.0496229,10.9677134 23.0681818,11.1363636 22.9545455,11.1363636 C18.5227273,14.6590909 14.7727273,18.9772727 11.9318182,23.8636364 L11.8181818,24.0909091 C11.4772727,24.6590909 11.25,25.1136364 10.9090909,25.6818182 L10.7954545,25.9090909 C10,27.6136364 9.31818182,29.4318182 8.63636364,31.3636364 Z M10.2272727,63.4090909 C10.1136364,63.1818182 10,62.9545455 9.88636364,62.7272727 C9.65909091,62.2727273 9.43181818,61.7045455 9.31818182,61.25 C9.31818182,61.1363636 9.20454545,61.0227273 9.20454545,60.7954545 C8.86363636,59.7727273 8.52272727,58.75 8.18181818,57.7272727 L8.06818182,57.0454545 C8.06818182,57.0454545 8.06818182,57.0454545 8.06818182,56.9318182 L7.95454545,56.4772727 L7.61363636,55.3409091 C7.5,54.7727273 7.38636364,54.2045455 7.27272727,53.75 C7.04545455,52.8409091 6.93181818,51.9318182 6.81818182,51.0227273 C6.81818182,51.0227273 6.81818182,50.9090909 6.81818182,50.9090909 C6.59090909,49.0909091 6.47727273,47.2727273 6.47727273,45.3409091 C6.47727273,45.2272727 6.47727273,45.2272727 6.47727273,45.1136364 C6.47727273,43.2954545 6.59090909,41.4772727 6.81818182,39.6590909 C6.81818182,39.5454545 6.81818182,39.4318182 6.81818182,39.3181818 C6.93181818,38.4090909 7.04545455,37.6136364 7.27272727,36.7045455 C7.27272727,36.7045455 7.27272727,36.5909091 7.27272727,36.5909091 C7.38636364,36.0227273 7.5,35.5681818 7.61363636,35 L0.454545455,33.0681818 C0.454545455,45.1136364 0.454545455,57.0454545 0.454545455,69.0318254 L8.97727273,64.8863636 L10.4545455,64.0909091 C10.3409091,63.8636364 10.2272727,63.6363636 10.2272727,63.4090909 Z M16.3636364,73.4090909 C16.3636364,73.4090909 16.25,73.2954545 16.25,73.2954545 L16.0227273,73.0681818 L15.3409091,72.1590909 C15.1136364,71.8181818 14.8863636,71.5909091 14.6590909,71.25 C14.5454545,71.0227273 14.3181818,70.7954545 14.2045455,70.5681818 C13.8636364,70.1136364 13.5227273,69.5454545 13.1818182,68.9772727 C12.9545455,68.75 12.8409091,68.4090909 12.6136364,68.0681818 C12.2727273,67.6136364 12.0454545,67.0454545 11.7045455,66.5909091 C11.5909091,66.4772727 11.4772727,66.25 11.4772727,66.1363636 L0.556967221,71.7766519 C0.556967221,81.7766519 0.556967221,81.5181129 0.556967221,91.0004693 L27.1590909,82.6136364 C27.0454545,82.6136364 27.0454545,82.5 26.9318182,82.5 C26.25,82.0454545 25.4545455,81.5909091 24.7727273,81.1363636 C24.7727273,81.1363636 24.7727273,81.1363636 24.6590909,81.0227273 C23.9772727,80.5681818 23.2954545,80 22.7272727,79.5454545 C22.5,79.4318182 22.3863636,79.2045455 22.1590909,79.0909091 C21.5909091,78.6363636 21.0227273,78.1818182 20.5681818,77.6136364 C20.4545455,77.5 20.3409091,77.3863636 20.2272727,77.3863636 C19.6590909,76.8181818 19.0909091,76.25 18.5227273,75.6818182 C18.2954545,75.4545455 18.0681818,75.2272727 17.9545455,75 C17.5,74.6590909 17.1590909,74.3181818 16.8181818,73.9772727 L16.3636364,73.4090909 Z M14.0909091,24.8863636 C14.3181818,25 14.6590909,25.1136364 14.8863636,25.3409091 C26.5909091,31.25 38.4090909,34.3181818 50,34.3181818 C61.9318182,34.3181818 73.9772727,31.1363636 85.9090909,25 C83.75,21.25 81.0227273,17.9545455 77.9545455,15 C77.9545455,15 77.8409091,14.8863636 77.8409091,14.8863636 C77.2727273,14.3181818 76.5909091,13.75 75.9090909,13.2954545 C75.2272727,12.7272727 72.7170743,10.2247387 72.7170743,10.2247387 C64.3239792,19.8410515 56.5046712,29.5881654 50,28.1818182 C43.4953288,26.7754709 37.0956516,20.5974584 27.7891494,10.8172329 C27.6755131,10.9308692 26.1363636,11.7045455 26.0227273,11.8181818 C21.1363636,15.1136364 17.0454545,19.6590909 14.0909091,24.8863636 Z M69.7727273,42.2727273 C70.3409091,42.2727273 70.7954545,42.2727273 71.3636364,42.3863636 C71.3636364,42.3863636 71.3636364,42.3863636 71.4772727,42.3863636 C73.0681818,42.3863636 74.7727273,42.5 76.3636364,42.5 C76.5909091,42.5 76.8181818,42.5 77.0454545,42.5 C78.1818182,42.5 79.3181818,42.5 80.4545455,42.5 C81.4772727,42.5 82.6136364,42.5 83.6363636,42.5 C84.4318182,42.5 85.2272727,42.5 86.0227273,42.5 C87.2727273,42.5 88.6363636,42.3863636 89.8863636,42.3863636 C90.3409091,42.3863636 90.7954545,42.3863636 91.3636364,42.2727273 C91.3636364,42.2727273 91.3636364,42.2727273 91.3636364,42.2727273 C91.3636364,41.8181818 91.25,41.3636364 91.25,40.9090909 C91.25,40.6818182 91.25,40.5681818 91.1363636,40.3409091 C91.1363636,40 91.0227273,39.5454545 91.0227273,39.2045455 C91.0227273,38.9772727 90.9090909,38.6363636 90.9090909,38.4090909 C90.9090909,38.0681818 90.7954545,37.7272727 90.6818182,37.5 C90.5681818,37.1590909 90.5681818,36.8181818 90.4545455,36.5909091 C90.3409091,36.3636364 90.3409091,36.0227273 90.2272727,35.7954545 C90.2272727,35.6818182 90.1136364,35.5681818 90.1136364,35.4545455 C83.1818182,37.2727273 76.3636364,39.6590909 69.7727273,42.2727273 Z M13.5227273,34.3181818 C13.8636364,34.4318182 14.2045455,34.4318182 14.5454545,34.5454545 C16.1363636,34.8863636 17.6136364,35.3409091 19.2045455,35.6818182 C19.6590909,35.7954545 20.1136364,35.9090909 20.5681818,36.0227273 C21.7045455,36.25 22.8409091,36.4772727 23.9772727,36.8181818 C24.5454545,36.9318182 25.1136364,37.0454545 25.6818182,37.1590909 C26.8181818,37.3863636 27.8409091,37.6136364 28.9772727,37.8409091 C29.5454545,37.9545455 30,38.0681818 30.5681818,38.1818182 C31.8181818,38.4090909 33.0681818,38.6363636 34.3181818,38.8636364 C34.6590909,38.9772727 35,38.9772727 35.3409091,39.0909091 C38.6363636,39.6590909 41.9318182,40.1136364 45.3409091,40.5681818 C45.4545455,40.5681818 45.6818182,40.5681818 45.7954545,40.6818182 C47.2727273,40.9090909 48.8636364,41.0227273 50.3409091,41.25 C50.5681818,41.25 50.7954545,41.25 51.0227273,41.3636364 C52.2727273,41.4772727 53.6363636,41.5909091 54.8863636,41.7045455 C56.25,41.0227273 57.6136364,40.2272727 58.9772727,39.5454545 C43.8636364,39.2045455 29.0909091,35.3409091 14.7727273,28.0681818 C14.5454545,27.9545455 14.2045455,27.8409091 13.9772727,27.6136364 C13.75,27.5 13.4090909,27.3863636 13.1818182,27.1590909 C12.7272727,28.0681818 12.2727273,29.0909091 11.8181818,30 C11.7045455,30.1136364 11.7045455,30.3409091 11.5909091,30.4545455 C11.4772727,30.7954545 11.3636364,31.1363636 11.25,31.4772727 C11.1363636,31.7045455 11.0227273,32.0454545 10.9090909,32.2727273 C10.7954545,32.6136364 10.6818182,32.8409091 10.6818182,33.1818182 C10.6818182,33.2954545 10.5681818,33.5227273 10.5681818,33.6363636 C11.4772727,33.75 12.5,33.9772727 13.5227273,34.3181818 Z M12.7272727,54.2045455 C13.4090909,54.0909091 14.0909091,53.8636364 14.7727273,53.75 C15.3409091,53.6363636 15.9090909,53.5227273 16.3636364,53.4090909 C17.0454545,53.2954545 17.7272727,53.1818182 18.4090909,53.0681818 C18.9772727,52.9545455 19.5454545,52.8409091 20,52.7272727 C20.6818182,52.6136364 21.3636364,52.5 22.0454545,52.3863636 C22.6136364,52.2727273 23.0681818,52.2727273 23.6363636,52.1590909 C24.3181818,52.0454545 25,52.0454545 25.6818182,51.9318182 C26.1363636,51.8181818 26.7045455,51.8181818 27.1590909,51.7045455 C27.8409091,51.5909091 28.6363636,51.5909091 29.3181818,51.4772727 C29.7727273,51.4772727 30.2272727,51.3636364 30.6818182,51.3636364 C31.4772727,51.3636364 32.2727273,51.25 33.0681818,51.25 C33.4090909,51.25 33.8636364,51.25 34.2045455,51.1363636 C34.5454545,51.1363636 34.8863636,51.1363636 35.3409091,51.1363636 C40.4545455,48.5227273 45.5681818,45.7954545 50.7954545,43.1818182 C50.5681818,43.1818182 50.4545455,43.1818182 50.2272727,43.0681818 C49.4318182,42.9545455 48.75,42.9545455 47.9545455,42.8409091 C47.2727273,42.7272727 46.5909091,42.6136364 45.7954545,42.6136364 C45,42.5 44.3181818,42.3863636 43.5227273,42.3863636 C42.8409091,42.2727273 42.1590909,42.1590909 41.3636364,42.0454545 C40.5681818,41.9318182 39.8863636,41.8181818 39.0909091,41.7045455 C38.4090909,41.5909091 37.7272727,41.4772727 36.9318182,41.3636364 C36.1363636,41.25 35.4545455,41.1363636 34.6590909,41.0227273 C33.9772727,40.9090909 33.2954545,40.7954545 32.5,40.6818182 C31.8181818,40.5681818 31.0227273,40.4545455 30.3409091,40.3409091 C29.6590909,40.2272727 28.9772727,40.1136364 28.1818182,39.8863636 C27.3863636,39.7727273 26.7045455,39.6590909 25.9090909,39.4318182 C25.2272727,39.3181818 24.5454545,39.0909091 23.8636364,38.9772727 C23.0681818,38.8636364 22.3863636,38.6363636 21.5909091,38.5227273 C20.9090909,38.4090909 20.2272727,38.1818182 19.5454545,38.0681818 C18.75,37.9545455 18.0681818,37.7272727 17.2727273,37.6136364 C16.5909091,37.5 15.9090909,37.2727273 15.2272727,37.1590909 C14.4318182,36.9318182 13.75,36.8181818 12.9545455,36.5909091 C12.2727273,36.4772727 11.5909091,36.25 10.9090909,36.0227273 C10.3409091,35.9090909 9.77272727,35.7954545 9.20454545,35.5681818 C9.20454545,35.6818182 9.20454545,35.7954545 9.09090909,35.7954545 C8.97727273,36.3636364 8.86363636,37.0454545 8.75,37.6136364 C8.75,37.7272727 8.75,37.8409091 8.63636364,37.9545455 C8.52272727,38.75 8.40909091,39.4318182 8.29545455,40.2272727 C8.29545455,40.3409091 8.29545455,40.3409091 8.29545455,40.4545455 C8.18181818,41.1363636 8.18181818,41.8181818 8.06818182,42.5 C8.06818182,42.6136364 8.06818182,42.7272727 8.06818182,42.8409091 C8.06818182,43.5227273 7.95454545,44.2045455 7.95454545,44.8863636 C7.95454545,45 7.95454545,45 7.95454545,45.1136364 C7.95454545,46.7045455 8.06818182,48.2954545 8.18181818,49.7727273 C8.18181818,49.8863636 8.18181818,49.8863636 8.18181818,50 C8.29545455,50.6818182 8.40909091,51.3636364 8.52272727,52.0454545 C8.52272727,52.1590909 8.52272727,52.2727273 8.63636364,52.3863636 C8.75,53.0681818 8.86363636,53.75 9.09090909,54.5454545 C9.09090909,54.5454545 9.09090909,54.6590909 9.09090909,54.6590909 C9.54545455,54.5454545 10,54.4318182 10.4545455,54.3181818 C11.7045455,54.4318182 12.2727273,54.3181818 12.7272727,54.2045455 Z M85.3409091,44.7727273 C83.1818182,44.7727273 80.9090909,44.8863636 78.75,44.8863636 C77.2727273,44.8863636 75.7954545,44.8863636 74.3181818,44.8863636 C73.8636364,44.8863636 73.2954545,44.8863636 72.8409091,44.8863636 C71.9318182,44.8863636 70.9090909,44.8863636 70,44.7727273 C69.4318182,44.7727273 68.75,44.7727273 68.1818182,44.6590909 C67.2727273,44.6590909 66.4772727,44.5454545 65.5681818,44.5454545 C65.3409091,44.5454545 65,44.5454545 64.7727273,44.5454545 C59.5454545,46.8181818 54.4318182,49.3181818 49.4318182,52.0454545 C49.8863636,52.0454545 50.2272727,52.1590909 50.6818182,52.1590909 C51.1363636,52.1590909 51.5909091,52.2727273 52.0454545,52.3863636 C52.6136364,52.5 53.1818182,52.5 53.8636364,52.6136364 C54.3181818,52.7272727 54.7727273,52.7272727 55.2272727,52.8409091 C55.7954545,52.9545455 56.3636364,53.0681818 56.9318182,53.1818182 C57.3863636,53.2954545 57.8409091,53.4090909 58.2954545,53.4090909 C58.8636364,53.5227273 59.4318182,53.6363636 60,53.75 C60.4545455,53.8636364 60.9090909,53.9772727 61.4772727,54.0909091 C62.0454545,54.2045455 62.6136364,54.3181818 63.1818182,54.4318182 C63.6363636,54.5454545 64.0909091,54.6590909 64.6590909,54.7727273 C65.2272727,54.8863636 65.7954545,55.1136364 66.3636364,55.2272727 C66.8181818,55.3409091 67.2727273,55.4545455 67.8409091,55.6818182 C68.4090909,55.7954545 68.9772727,56.0227273 69.5454545,56.1363636 C70,56.25 70.4545455,56.4772727 71.0227273,56.5909091 C71.5909091,56.8181818 72.1590909,56.9318182 72.7272727,57.1590909 C73.1818182,57.2727273 73.6363636,57.5 74.2045455,57.6136364 C74.7727273,57.8409091 75.3409091,57.9545455 75.7954545,58.1818182 C76.25,58.4090909 76.7045455,58.5227273 77.2727273,58.75 C77.8409091,58.9772727 78.4090909,59.2045455 78.8636364,59.4318182 C79.3181818,59.6590909 79.7727273,59.8863636 80.3409091,60 C80.9090909,60.2272727 81.4772727,60.4545455 81.9318182,60.6818182 C82.3863636,60.9090909 82.8409091,61.1363636 83.4090909,61.3636364 C83.9772727,61.5909091 84.4318182,61.8181818 85,62.1590909 C85.4545455,62.3863636 85.9090909,62.6136364 86.4772727,62.8409091 C86.8181818,63.0681818 87.1590909,63.1818182 87.5,63.2954545 C87.5,63.1818182 87.6136364,63.0681818 87.6136364,62.9545455 C87.8409091,62.3863636 88.0681818,61.9318182 88.2954545,61.3636364 C88.2954545,61.25 88.4090909,61.1363636 88.5227273,60.9090909 C89.0909091,59.4318182 89.6590909,57.9545455 90,56.4772727 C90,56.4772727 90,56.3636364 90,56.3636364 C90.2272727,55.5681818 90.3409091,54.8863636 90.5681818,54.0909091 C90.5681818,54.0909091 90.5681818,54.0909091 90.5681818,54.0909091 C91.25,51.0227273 91.5909091,47.7272727 91.4772727,44.5454545 C91.4772727,44.5454545 91.4772727,44.4318182 91.4772727,44.4318182 C90.2272727,44.5454545 88.8636364,44.5454545 87.6136364,44.5454545 C86.8181818,44.6590909 86.0227273,44.6590909 85.3409091,44.7727273 Z M85.2272727,64.8863636 C84.7727273,64.6590909 84.3181818,64.4318182 83.75,64.2045455 C83.1818182,63.9772727 82.7272727,63.75 82.1590909,63.5227273 C81.7045455,63.2954545 81.25,63.0681818 80.7954545,62.8409091 C80.2272727,62.6136364 79.7727273,62.3863636 79.2045455,62.1590909 C78.75,61.9318182 78.2954545,61.7045455 77.8409091,61.5909091 C77.2727273,61.3636364 76.8181818,61.1363636 76.25,60.9090909 C75.7954545,60.6818182 75.3409091,60.5681818 74.8863636,60.3409091 C74.3181818,60.1136364 73.8636364,60 73.2954545,59.7727273 C72.8409091,59.6590909 72.3863636,59.4318182 71.9318182,59.3181818 C71.3636364,59.0909091 70.7954545,58.9772727 70.3409091,58.75 C69.8863636,58.6363636 69.4318182,58.4090909 68.9772727,58.2954545 C68.4090909,58.0681818 67.8409091,57.9545455 67.2727273,57.8409091 C66.8181818,57.7272727 66.3636364,57.6136364 65.9090909,57.3863636 C65.3409091,57.2727273 64.7727273,57.0454545 64.2045455,56.9318182 C63.75,56.8181818 63.2954545,56.7045455 62.8409091,56.5909091 C62.2727273,56.4772727 61.7045455,56.3636364 61.1363636,56.25 C60.6818182,56.1363636 60.2272727,56.0227273 59.7727273,55.9090909 C59.2045455,55.7954545 58.6363636,55.6818182 58.0681818,55.5681818 C57.6136364,55.4545455 57.1590909,55.3409091 56.7045455,55.3409091 C56.1363636,55.2272727 55.5681818,55.1136364 55,55 C54.5454545,54.8863636 54.0909091,54.8863636 53.6363636,54.7727273 C53.0681818,54.6590909 52.5,54.6590909 51.9318182,54.5454545 C51.4772727,54.4318182 51.0227273,54.4318182 50.5681818,54.3181818 C50,54.2045455 49.3181818,54.2045455 48.75,54.0909091 C48.2954545,54.0909091 47.9545455,53.9772727 47.5,53.9772727 C47.0454545,53.9772727 46.5909091,53.8636364 46.0227273,53.8636364 C45.1136364,54.4318182 44.2045455,54.8863636 43.2954545,55.4545455 C56.4772727,55.5681818 69.2045455,60.2272727 81.3636364,69.4318182 C81.7045455,69.6590909 82.0454545,69.8863636 82.2727273,70.1136364 C82.5,70.2272727 82.7272727,70.4545455 82.8409091,70.5681818 C82.9545455,70.3409091 83.0681818,70.2272727 83.1818182,70 C83.5227273,69.5454545 83.8636364,68.9772727 84.2045455,68.5227273 C84.4318182,68.1818182 84.6590909,67.8409091 84.8863636,67.5 C85.2272727,67.0454545 85.4545455,66.4772727 85.7954545,66.0227273 C85.9090909,65.7954545 86.0227273,65.5681818 86.1363636,65.3409091 C85.9090909,65.2272727 85.5681818,65.1136364 85.2272727,64.8863636 Z M30.5681818,53.8636364 C30.2272727,53.8636364 29.8863636,53.8636364 29.5454545,53.9772727 C28.8636364,53.9772727 28.1818182,54.0909091 27.3863636,54.2045455 C26.9318182,54.2045455 26.3636364,54.3181818 25.9090909,54.4318182 C25.2272727,54.5454545 24.5454545,54.5454545 23.8636364,54.6590909 C23.2954545,54.7727273 22.8409091,54.7727273 22.2727273,54.8863636 C21.5909091,55 20.9090909,55.1136364 20.3409091,55.2272727 C19.7727273,55.3409091 19.2045455,55.4545455 18.75,55.5681818 C18.0681818,55.6818182 17.5,55.7954545 16.8181818,55.9090909 C16.25,56.0227273 15.6818182,56.1363636 15.1136364,56.25 C14.4318182,56.3636364 13.8636364,56.4772727 13.1818182,56.7045455 C12.6136364,56.8181818 12.0454545,56.9318182 11.4772727,57.1590909 C11.0227273,57.2727273 10.5681818,57.3863636 10.1136364,57.5 C10.1136364,57.5 10.1136364,57.5 10.1136364,57.5 C10.3409091,58.4090909 10.6818182,59.3181818 11.0227273,60.2272727 C11.0227273,60.3409091 11.1363636,60.4545455 11.1363636,60.5681818 C11.4772727,61.4772727 11.8181818,62.2727273 12.2727273,63.1818182 C12.2727273,63.2954545 12.3863636,63.2954545 12.3863636,63.4090909 C18.6363636,60 24.6590909,56.9318182 30.5681818,53.8636364 Z M80.6818182,71.9318182 C80.3409091,71.5909091 79.8863636,71.3636364 79.5454545,71.0227273 C79.4318182,70.9090909 79.3181818,70.9090909 79.3181818,70.7954545 C69.4318182,63.6363636 59.6590909,60 50,60 C39.7727273,60 29.3181818,64.0909091 18.9772727,72.1590909 C18.8636364,72.2727273 18.75,72.2727273 18.75,72.3863636 C18.8636364,72.6136364 19.0909091,72.7272727 19.2045455,72.9545455 C19.6590909,73.4090909 20,73.8636364 20.4545455,74.3181818 C20.7954545,74.6590909 21.0227273,74.8863636 21.3636364,75.2272727 C21.8181818,75.6818182 22.2727273,76.0227273 22.6136364,76.4772727 C22.9545455,76.8181818 23.2954545,77.0454545 23.6363636,77.3863636 C24.0909091,77.7272727 24.5454545,78.0681818 25,78.4090909 C25.3409091,78.75 25.7954545,78.9772727 26.1363636,79.2045455 C26.5909091,79.5454545 27.0454545,79.8863636 27.5,80.1136364 C27.7272727,80.2272727 27.9545455,80.4545455 28.2954545,80.5681818 C35.4545455,68.75 42.7272727,62.7272727 50,62.7272727 C57.2727273,62.7272727 63.7410659,70.2840909 71.9486012,80.2385482 C72.1758739,80.1249119 73.2954545,79.6590909 73.75,79.3181818 C74.0909091,79.0909091 74.5454545,78.75 74.8863636,78.5227273 C75.3409091,78.1818182 75.7954545,77.8409091 76.25,77.5 C76.5909091,77.1590909 76.9318182,76.9318182 77.2727273,76.5909091 C77.7272727,76.25 78.1818182,75.7954545 78.5227273,75.3409091 C78.8636364,75 79.0909091,74.7727273 79.4318182,74.4318182 C79.8863636,73.9772727 80.3409091,73.5227273 80.6818182,73.0681818 C80.9090909,72.8409091 81.0227273,72.7272727 81.25,72.5 C81.1363636,72.2727273 80.9090909,72.1590909 80.6818182,71.9318182 Z M89.4318182,32.9545455 C89.4318182,32.8409091 89.4318182,32.8409091 89.3181818,32.7272727 C88.9772727,31.8181818 88.6363636,30.9090909 88.2954545,30 C88.2954545,29.8863636 88.2954545,29.8863636 88.1818182,29.7727273 C87.8409091,28.75 87.3863636,27.8409091 86.9318182,26.9318182 C80.9090909,30.2272727 74.7727273,33.4090909 68.75,36.5909091 C67.9545455,37.0454545 67.0454545,37.5 66.25,37.9545455 C65.4545455,38.4090909 64.6590909,38.75 63.8636364,39.2045455 C62.2727273,40 60.6818182,40.9090909 59.0909091,41.7045455 C59.0909091,41.7045455 59.0909091,41.7045455 59.0909091,41.7045455 C58.4090909,42.0454545 57.8409091,42.3863636 57.1590909,42.7272727 C56.4772727,43.0681818 55.9090909,43.4090909 55.2272727,43.75 C55.2272727,43.75 55.2272727,43.75 55.2272727,43.75 C50.3409091,46.25 45.5681818,48.8636364 40.6818182,51.3636364 C40.6818182,51.3636364 40.6818182,51.3636364 40.6818182,51.3636364 C40,51.7045455 39.2045455,52.1590909 38.5227273,52.5 C37.7272727,52.8409091 37.0454545,53.2954545 36.25,53.6363636 C36.25,53.6363636 36.25,53.6363636 36.25,53.6363636 C34.0909091,54.7727273 31.8181818,55.9090909 29.6590909,57.0454545 C28.0681818,57.8409091 26.4772727,58.6363636 24.8863636,59.5454545 C21.1363636,61.4772727 17.5,63.2954545 13.75,65.2272727 C13.75,65.2272727 13.75,65.2272727 13.75,65.2272727 C13.8636364,65.4545455 13.9772727,65.6818182 14.0909091,65.9090909 C14.4318182,66.4772727 14.6590909,66.9318182 15,67.5 C15.2272727,67.8409091 15.4545455,68.1818182 15.6818182,68.5227273 C16.0227273,69.0909091 16.3636364,69.5454545 16.8181818,70.1136364 C16.9318182,70.3409091 17.0454545,70.4545455 17.2727273,70.6818182 C22.6136364,66.3636364 28.1818182,62.3863636 33.8636364,58.6363636 C34.6590909,58.0681818 35.4545455,57.6136364 36.25,57.1590909 C36.9318182,56.7045455 37.7272727,56.25 38.4090909,55.7954545 C39.5454545,55.1136364 40.5681818,54.4318182 41.7045455,53.75 C41.7045455,53.75 41.7045455,53.75 41.7045455,53.75 C42.2727273,53.4090909 42.9545455,53.0681818 43.5227273,52.7272727 C44.0909091,52.3863636 44.7727273,52.0454545 45.3409091,51.7045455 C45.3409091,51.7045455 45.3409091,51.7045455 45.3409091,51.7045455 C50.1136364,49.0909091 54.8863636,46.5909091 59.7727273,44.3181818 C59.7727273,44.3181818 59.7727273,44.3181818 59.7727273,44.3181818 C60.4545455,43.9772727 61.25,43.6363636 62.0454545,43.2954545 C62.8409091,42.9545455 63.6363636,42.6136364 64.3181818,42.2727273 C64.3181818,42.2727273 64.3181818,42.2727273 64.3181818,42.2727273 C67.1590909,41.0227273 70,39.8863636 72.9545455,38.75 C74.6590909,38.0681818 76.3636364,37.5 78.1818182,36.8181818 C81.9318182,35.3409091 85.6818182,34.0909091 89.4318182,32.9545455 C89.4318182,32.9545455 89.4318182,32.9545455 89.4318182,32.9545455 Z" id="Shape" fill-rule="nonzero"></path>
            <g id="Group" transform="translate(86.363636, 45.454545) scale(-1, 1) translate(-86.363636, -45.454545) translate(72.727273, 0.000000)">
                <path d="M8.2451176,31.0196808 C8.13148124,31.2469535 8.13148124,31.4742263 8.01784487,31.701499 C7.90420851,31.9287717 7.79057215,32.2696808 7.79057215,32.4969535 L4.06201731e-14,30.3674518 C4.03717464e-14,18.1762839 6.23860868e-31,10.0575399 0,0 L25.3068033,8.82264856 C22.6583768,10.6237579 22.6769358,10.7924081 22.5632994,10.7924081 C18.1314812,14.3151353 14.3814812,18.6333172 11.5405721,23.5196808 L11.4269358,23.7469535 C11.0860267,24.3151353 10.858754,24.7696808 10.5178449,25.3378626 L10.4042085,25.5651353 C9.60875396,27.2696808 8.92693578,29.0878626 8.2451176,31.0196808 Z" id="Path"></path>
                <path d="M9.77272727,63.2954545 C9.65909091,63.0681818 9.54545455,62.8409091 9.43181818,62.6136364 C9.20454545,62.1590909 8.97727273,61.5909091 8.86363636,61.1363636 C8.86363636,61.0227273 8.75,60.9090909 8.75,60.6818182 C8.40909091,59.6590909 8.06818182,58.6363636 7.72727273,57.6136364 L7.61363636,56.9318182 C7.61363636,56.9318182 7.61363636,56.9318182 7.61363636,56.8181818 L7.5,56.3636364 L7.15909091,55.2272727 C7.04545455,54.6590909 6.93181818,54.0909091 6.81818182,53.6363636 C6.59090909,52.7272727 6.47727273,51.8181818 6.36363636,50.9090909 C6.36363636,50.9090909 6.36363636,50.7954545 6.36363636,50.7954545 C6.13636364,48.9772727 6.02272727,47.1590909 6.02272727,45.2272727 C6.02272727,45.1136364 6.02272727,45.1136364 6.02272727,45 C6.02272727,43.1818182 6.13636364,41.3636364 6.36363636,39.5454545 C6.36363636,39.4318182 6.36363636,39.3181818 6.36363636,39.2045455 C6.47727273,38.2954545 6.59090909,37.5 6.81818182,36.5909091 C6.81818182,36.5909091 6.81818182,36.4772727 6.81818182,36.4772727 C6.93181818,35.9090909 7.04545455,35.4545455 7.15909091,34.8863636 L0,32.9545455 C2.0191238e-15,45 -3.80040296e-17,56.9318182 0,68.918189 L8.52272727,64.7727273 L10,63.9772727 C9.88636364,63.75 9.77272727,63.5227273 9.77272727,63.2954545 Z" id="Path"></path>
                <path d="M15.8066691,73.1818182 C15.8066691,73.1818182 15.6930328,73.0681818 15.6930328,73.0681818 L15.4657601,72.8409091 L14.7839419,71.9318182 C14.5566691,71.5909091 14.3293964,71.3636364 14.1021237,71.0227273 C13.9884873,70.7954545 13.7612146,70.5681818 13.6475782,70.3409091 C13.3066691,69.8863636 12.9657601,69.3181818 12.624851,68.75 C12.3975782,68.5227273 12.2839419,68.1818182 12.0566691,67.8409091 C11.7157601,67.3863636 11.4884873,66.8181818 11.1475782,66.3636364 C11.0339419,66.25 10.9203055,66.0227273 10.9203055,65.9090909 L4.16681922e-15,71.5493791 C4.16681922e-15,81.5493791 -7.27162017e-17,81.2908402 0,90.7731966 L26.666979,81.8695541 C26.5533426,81.8695541 24.8975782,81.3636364 24.2157601,80.9090909 C24.2157601,80.9090909 24.2157601,80.9090909 24.1021237,80.7954545 C23.4203055,80.3409091 22.7384873,79.7727273 22.1703055,79.3181818 C21.9430328,79.2045455 21.8293964,78.9772727 21.6021237,78.8636364 C21.0339419,78.4090909 20.4657601,77.9545455 20.0112146,77.3863636 C19.8975782,77.2727273 19.7839419,77.1590909 19.6703055,77.1590909 C19.1021237,76.5909091 18.5339419,76.0227273 17.9657601,75.4545455 C17.7384873,75.2272727 17.5112146,75 17.3975782,74.7727273 C16.9430328,74.4318182 16.6021237,74.0909091 16.2612146,73.75 L15.8066691,73.1818182 Z" id="Path"></path>
            </g>
        </g>
    </g>
</svg>