<?xml version="1.0" encoding="UTF-8"?>
<svg width="100px" height="100px" viewBox="0 0 100 100" version="1.1" xmlns="http://www.w3.org/2000/svg" xmlns:xlink="http://www.w3.org/1999/xlink">
    <!-- Generator: Sketch 48.2 (47327) - http://www.bohemiancoding.com/sketch -->
    <title>Group</title>
    <desc>Created with Sketch.</desc>
    <defs></defs>
    <g id="Artboard" stroke="none" stroke-width="1" fill="none" fill-rule="evenodd" transform="translate(0.000000, 2.000000)">
        <g id="Group" fill="#000000" fill-rule="nonzero">
            <g id="Graph-noun_633378_cc" transform="translate(0.000000, 13.558908)">
                <path d="M97.8045296,81.458513 L1.20746333,81.458513 C0.540599746,81.458513 0,80.9179132 0,80.2510496 C0,79.5841861 0.540599746,79.0435863 1.20746333,79.0435863 L97.8045296,79.0435863 C98.4713931,79.0435863 99.0119929,79.5841861 99.0119929,80.2510496 C99.0119929,80.9179132 98.4713931,81.458513 97.8045296,81.458513 Z" id="Shape"></path>
                <path d="M16.8078895,81.458513 C16.1410259,81.458513 15.6004262,80.9179132 15.6004262,80.2510496 L15.6004262,43.725284 L8.95937789,43.725284 L8.95937789,80.2510496 C8.95937789,80.9179132 8.41877815,81.458513 7.75191456,81.458513 C7.08505098,81.458513 6.54445124,80.9179132 6.54445124,80.2510496 L6.54445124,42.5178207 C6.54445124,41.8509571 7.08505098,41.3103573 7.75191456,41.3103573 L16.8078895,41.3103573 C17.4747531,41.3103573 18.0153529,41.8509571 18.0153529,42.5178207 L18.0153529,80.2510496 C18.0153529,80.9179132 17.4747531,81.458513 16.8078895,81.458513 Z" id="Shape"></path>
                <path d="M33.9055702,81.458513 C33.2387067,81.458513 32.6981069,80.9179132 32.6981069,80.2510496 L32.6981069,33.6671145 L26.0570586,33.6671145 L26.0570586,80.2510496 C26.0570586,80.9179132 25.5164589,81.458513 24.8495953,81.458513 C24.1827317,81.458513 23.642132,80.9179132 23.642132,80.2510496 L23.642132,32.4596511 C23.642132,31.7927875 24.1827317,31.2521878 24.8495953,31.2521878 L33.9055702,31.2521878 C34.5724338,31.2521878 35.1130336,31.7927875 35.1130336,32.4596511 L35.1130336,80.2510496 C35.1130336,80.9179132 34.5724338,81.458513 33.9055702,81.458513 Z" id="Shape"></path>
                <path d="M51.0153256,81.458513 C50.348462,81.458513 49.8078623,80.9179132 49.8078623,80.2510496 L49.8078623,50.7647952 L43.166814,50.7647952 L43.166814,80.2510496 C43.166814,80.9179132 42.6262142,81.458513 41.9593506,81.458513 C41.2924871,81.458513 40.7518873,80.9179132 40.7518873,80.2510496 L40.7518873,49.5573319 C40.7518873,48.8904683 41.2924871,48.3498685 41.9593506,48.3498685 L51.0153256,48.3498685 C51.6821892,48.3498685 52.2227889,48.8904683 52.2227889,49.5573319 L52.2227889,80.2510496 C52.2227889,80.9179132 51.6821892,81.458513 51.0153256,81.458513 Z" id="Shape"></path>
                <path d="M68.125081,81.458513 C67.4582174,81.458513 66.9176176,80.9179132 66.9176176,80.2510496 L66.9176176,33.6671145 L60.2765693,33.6671145 L60.2765693,80.2510496 C60.2765693,80.9179132 59.7359696,81.458513 59.069106,81.458513 C58.4022424,81.458513 57.8616427,80.9179132 57.8616427,80.2510496 L57.8616427,32.4596511 C57.8616427,31.7927875 58.4022424,31.2521878 59.069106,31.2521878 L68.125081,31.2521878 C68.7919445,31.2521878 69.3325443,31.7927875 69.3325443,32.4596511 L69.3325443,80.2510496 C69.3325443,80.9179132 68.7919445,81.458513 68.125081,81.458513 Z" id="Shape"></path>
                <path d="M85.2227617,81.458513 C84.5558981,81.458513 84.0152983,80.9179132 84.0152983,80.2510496 L84.0152983,18.5738229 L77.37425,18.5738229 L77.37425,80.2510496 C77.37425,80.9179132 76.8336503,81.458513 76.1667867,81.458513 C75.4999231,81.458513 74.9593234,80.9179132 74.9593234,80.2510496 L74.9593234,17.3663595 C74.9593234,16.699496 75.4999231,16.1588962 76.1667867,16.1588962 L85.2227617,16.1588962 C85.8896253,16.1588962 86.430225,16.699496 86.430225,17.3663595 L86.430225,80.2510496 C86.430225,80.9179132 85.8896253,81.458513 85.2227617,81.458513 Z" id="Shape"></path>
                <path d="M46.4873381,37.6879673 C46.1550573,37.6804587 45.8405647,37.5363163 45.6179645,37.2895044 L29.2809857,19.0205843 L13.0768278,33.3652486 C12.5734183,33.7707172 11.8399809,33.707822 11.4129546,33.2225649 C10.9859284,32.7373077 11.016794,32.0018259 11.4829762,31.5540536 L28.5927316,16.460762 C29.0898713,16.0182332 29.8513606,16.0614382 30.2952549,16.5573591 L46.523562,34.7176076 L79.8374752,0.425649044 C80.1394448,0.117208665 80.5830272,-0.00670314712 81.0011291,0.100589993 C81.4192311,0.207883134 81.7483331,0.530080844 81.8644655,0.945814356 C81.9805978,1.36154787 81.8661174,1.80765736 81.5641478,2.1160977 L47.3567117,37.3257283 C47.1278995,37.5591747 46.8142151,37.6898765 46.4873381,37.6879673 Z" id="Shape"></path>
                <path d="M80.6947742,11.3531922 C80.0279106,11.3531922 79.4873109,10.8125924 79.4873109,10.1457288 L79.4873109,2.46626207 L71.8078441,2.46626207 C71.1409805,2.46626207 70.6003808,1.92566232 70.6003808,1.25879874 C70.6003808,0.591935159 71.1409805,0.0513354127 71.8078441,0.0513354127 L80.6947742,0.0513354127 C81.3616378,0.0513354127 81.9022375,0.591935159 81.9022375,1.25879874 L81.9022375,10.1457288 C81.9022375,10.8125924 81.3616378,11.3531922 80.6947742,11.3531922 Z" id="Shape"></path>
            </g>
            <g id="Papers" transform="translate(3.743414, 0.475095)">
                <path d="M3.51036161,0.0137825831 C3.17573327,0.0453203428 2.92047021,0.326989925 2.92191949,0.663098025 L2.92191949,3.26035979 L0.649315442,3.26035979 C0.62903549,3.25940822 0.60872207,3.25940822 0.588442119,3.26035979 C0.253813781,3.29189755 -0.00144927808,3.57356713 1.29733492e-10,3.90967523 L1.29733492e-10,27.9343466 C3.58539683e-05,28.2929387 0.290723278,28.5836262 0.649315442,28.583662 L18.1808324,28.583662 C18.5394245,28.5836262 18.830112,28.2929387 18.8301478,27.9343466 L18.8301478,25.3370848 L21.1027519,25.3370848 C21.461344,25.337049 21.7520314,25.0463615 21.7520673,24.6877694 L21.7520673,5.23874278 C21.7533924,5.06850486 21.6878124,4.9045547 21.5694473,4.78219286 L17.0445303,0.206548105 C16.9213394,0.0819660382 16.7530345,0.0124488252 16.5778349,0.0137825831 L3.57123493,0.0137825831 C3.55095498,0.0128310096 3.53064156,0.0128310096 3.51036161,0.0137825831 Z M4.22055037,1.31241347 L15.9082283,1.31241347 L15.9082283,5.20830612 C15.9082642,5.56689828 16.1989516,5.8575857 16.5575438,5.85762156 L20.4534364,5.85762156 L20.4534364,24.0384539 L4.22055037,24.0384539 L4.22055037,1.31241347 Z M17.2068592,2.21536775 L19.5098999,4.55899067 L17.2068592,4.55899067 L17.2068592,2.21536775 Z M1.29863088,4.55899067 L2.92191949,4.55899067 L2.92191949,24.6877694 C2.92195534,25.0463615 3.21264276,25.337049 3.57123493,25.3370848 L17.5315169,25.3370848 L17.5315169,27.2850311 L1.29863088,27.2850311 L1.29863088,4.55899067 Z M6.10762337,8.45488332 C5.8756122,8.46571234 5.66700791,8.59951125 5.56040805,8.80586755 C5.45380818,9.01222384 5.4654123,9.25977836 5.59084822,9.45525798 C5.71628415,9.65073759 5.93648987,9.76443603 6.1684967,9.75351421 L12.6616511,9.75351421 C12.8958176,9.7568259 13.1136275,9.63379648 13.2316772,9.43153631 C13.3497268,9.22927614 13.3497268,8.97912139 13.2316772,8.77686122 C13.1136275,8.57460105 12.8958176,8.45157163 12.6616511,8.45488332 L6.1684967,8.45488332 C6.14821674,8.45393175 6.12790332,8.45393175 6.10762337,8.45488332 Z M6.10762337,12.0261183 C5.8756122,12.0369473 5.66700791,12.1707462 5.56040805,12.3771025 C5.45380818,12.5834588 5.4654123,12.8310133 5.59084822,13.0264929 C5.71628415,13.2219725 5.93648987,13.335671 6.1684967,13.3247491 L18.5054901,13.3247491 C18.7396566,13.3280608 18.9574665,13.2050314 19.0755161,13.0027712 C19.1935658,12.8005111 19.1935658,12.5503563 19.0755161,12.3480962 C18.9574665,12.145836 18.7396566,12.0228066 18.5054901,12.0261183 L6.1684967,12.0261183 C6.14821674,12.0251667 6.12790332,12.0251667 6.10762337,12.0261183 Z M6.10762337,15.5973532 C5.8756122,15.6081822 5.66700791,15.7419811 5.56040805,15.9483374 C5.45380818,16.1546937 5.4654123,16.4022482 5.59084822,16.5977278 C5.71628415,16.7932074 5.93648987,16.9069059 6.1684967,16.8959841 L18.5054901,16.8959841 C18.7396566,16.8992958 18.9574665,16.7762663 19.0755161,16.5740062 C19.1935658,16.371746 19.1935658,16.1215913 19.0755161,15.9193311 C18.9574665,15.7170709 18.7396566,15.5940415 18.5054901,15.5973532 L6.1684967,15.5973532 C6.14821674,15.5964016 6.12790332,15.5964016 6.10762337,15.5973532 Z M6.10762337,19.1685881 C5.8756122,19.1794171 5.66700791,19.313216 5.56040805,19.5195723 C5.45380818,19.7259286 5.4654123,19.9734831 5.59084822,20.1689628 C5.71628415,20.3644424 5.93648987,20.4781408 6.1684967,20.467219 L18.5054901,20.467219 C18.7396566,20.4705307 18.9574665,20.3475013 19.0755161,20.1452411 C19.1935658,19.9429809 19.1935658,19.6928262 19.0755161,19.490566 C18.9574665,19.2883058 18.7396566,19.1652764 18.5054901,19.1685881 L6.1684967,19.1685881 C6.14821674,19.1676365 6.12790332,19.1676365 6.10762337,19.1685881 Z" id="Shape"></path>
            </g>
        </g>
    </g>
</svg>