<?xml version="1.0" encoding="UTF-8"?>
<svg width="100px" height="100px" viewBox="0 0 100 100" version="1.1" xmlns="http://www.w3.org/2000/svg" xmlns:xlink="http://www.w3.org/1999/xlink">
    <!-- Generator: Sketch 48.2 (47327) - http://www.bohemiancoding.com/sketch -->
    <title>noun_54121_cc</title>
    <desc>Created with Sketch.</desc>
    <defs></defs>
    <g id="Page-1" stroke="none" stroke-width="1" fill="none" fill-rule="evenodd">
        <g id="noun_54121_cc" transform="translate(5.000000, 0.000000)" fill="#000000" fill-rule="nonzero">
            <path d="M70.562,35.222 L53.434,46.514 C53.271,46.216 53.085,45.918 52.879,45.64 L69.944,34.4 C70.129,34.688 70.335,34.965 70.562,35.222 Z" id="Shape"></path>
            <path d="M39.246,60.929 L33.914,72.898 C33.626,72.703 33.318,72.548 32.989,72.435 L38.352,60.425 L38.568,60.517 C38.579,60.517 38.579,60.528 38.589,60.528 C38.6,60.528 38.6,60.539 38.61,60.539 C38.61,60.539 38.621,60.539 38.621,60.549 C38.814,60.691 39.03,60.805 39.246,60.929 Z" id="Shape"></path>
            <path d="M28.632,73.318 C28.386,73.544 28.159,73.812 27.965,74.098 L18.461,64.204 C18.759,64.01 19.026,63.794 19.253,63.537 L28.632,73.318 Z" id="Shape"></path>
            <path d="M80.424,73.698 L58.397,78.557 C58.367,78.208 58.294,77.869 58.202,77.54 L80.117,72.712 C80.178,73.062 80.281,73.391 80.424,73.698 Z" id="Shape"></path>
            <path d="M25.109,35.931 L18.4,57.024 C18.112,56.839 17.804,56.696 17.465,56.592 L24.184,35.458 C24.472,35.644 24.78,35.797 25.109,35.931 Z" id="Shape"></path>
            <path d="M51.708,73.556 C51.369,73.617 51.041,73.709 50.722,73.832 L47.158,61.811 C47.486,61.718 47.815,61.605 48.134,61.471 L51.708,73.556 Z" id="Shape"></path>
            <path d="M34.324,55.113 L20.372,60.075 C20.331,59.726 20.248,59.397 20.115,59.078 L34.036,54.127 C34.119,54.466 34.211,54.794 34.324,55.113 Z" id="Shape"></path>
            <path d="M37.89,43.328 C37.622,43.544 37.356,43.76 37.109,43.996 L30.43,35.51 C30.728,35.336 31.006,35.14 31.263,34.914 L37.89,43.328 Z" id="Shape"></path>
            <path d="M21.543,28.718 C21.44,29.047 21.378,29.386 21.348,29.736 L7.899,27.311 C8.012,26.993 8.074,26.644 8.084,26.294 L21.543,28.718 Z" id="Shape"></path>
            <path d="M85.869,7.451 L80.507,22.831 C80.209,22.667 79.89,22.523 79.571,22.41 L84.883,7.153 C85.191,7.287 85.521,7.39 85.869,7.451 Z" id="Shape"></path>
            <path d="M69.555,26.191 C69.39,26.489 69.246,26.808 69.133,27.137 L48.996,16.801 C49.181,16.513 49.324,16.205 49.428,15.886 L69.555,26.191 Z" id="Shape"></path>
            <path d="M45.903,18.742 L44.824,41.171 C44.639,41.161 44.464,41.161 44.279,41.161 C44.115,41.161 43.95,41.161 43.786,41.171 L44.875,18.733 C45.049,18.763 45.224,18.774 45.409,18.774 C45.574,18.773 45.738,18.763 45.903,18.742 Z" id="Shape"></path>
            <path d="M15.122,56.53 C14.783,56.613 14.464,56.736 14.166,56.901 L4.725,30.239 C5.064,30.157 5.383,30.054 5.691,29.9 L15.122,56.53 Z" id="Shape"></path>
            <path d="M82.305,68.191 C81.996,68.345 81.719,68.551 81.462,68.787 L75.339,60.527 C75.657,60.373 75.955,60.199 76.233,59.983 L82.305,68.191 Z" id="Shape"></path>
            <path d="M75.791,38.006 L74.229,49.286 C73.901,49.194 73.572,49.133 73.223,49.112 L74.784,37.821 C75.112,37.904 75.452,37.965 75.791,38.006 Z" id="Shape"></path>
            <path d="M27.903,78.599 L16.674,83.203 C16.571,82.874 16.438,82.556 16.283,82.248 L27.482,77.666 C27.584,78.004 27.718,78.312 27.903,78.599 Z" id="Shape"></path>
            <path d="M66.668,55.113 C66.668,55.205 66.668,55.298 66.678,55.389 L54.492,54.218 C54.574,53.889 54.646,53.55 54.687,53.2 L66.718,54.351 C66.688,54.6 66.668,54.856 66.668,55.113 Z" id="Shape"></path>
            <path d="M15.656,64.842 L12.687,79.36 C12.368,79.268 12.029,79.207 11.68,79.175 L14.659,64.585 C14.978,64.719 15.307,64.801 15.656,64.842 Z" id="Shape"></path>
            <path d="M74.764,89.798 C74.63,90.116 74.507,90.445 74.425,90.784 L57.524,82.277 C57.719,81.99 57.883,81.681 58.006,81.363 L74.764,89.798 Z" id="Shape"></path>
            <path d="M84.781,76.154 L84.338,85.113 C84.01,85.031 83.671,84.959 83.322,84.908 L83.753,76.143 C83.928,76.174 84.103,76.184 84.287,76.184 C84.451,76.185 84.616,76.175 84.781,76.154 Z" id="Shape"></path>
            <path d="M82.562,4.543 L82.562,4.554 L49.592,13.841 C49.54,13.492 49.447,13.163 49.315,12.855 L82.367,3.537 C82.387,3.886 82.448,4.215 82.562,4.543 Z" id="Shape"></path>
            <path d="M42.708,17.808 L32.157,26.705 C31.962,26.428 31.725,26.171 31.469,25.934 L42,17.058 C42.205,17.335 42.451,17.582 42.708,17.808 Z" id="Shape"></path>
            <path d="M47.157,77.85 C47.074,78.179 47.023,78.518 47.012,78.877 L35.443,78.044 C35.577,77.726 35.67,77.397 35.721,77.038 L47.157,77.85 Z" id="Shape"></path>
            <path d="M44.28,42.19 C39.04,42.19 34.78,46.45 34.78,51.69 C34.78,56.919 39.04,61.19 44.28,61.19 C49.52,61.19 53.77,56.919 53.77,51.69 C53.77,46.45 49.52,42.19 44.28,42.19 Z M44.21,43.96 C44.87,43.96 45.4,44.49 45.4,45.16 C45.4,45.82 44.87,46.35 44.21,46.35 C43.55,46.35 43.01,45.82 43.01,45.16 C43.01,44.49 43.55,43.96 44.21,43.96 Z M47.01,51.83 C47.01,52.55 46.071,52.55 46.071,51.83 L46.071,48.25 L45.781,48.25 L45.77,57.95 C45.77,58.32 45.471,58.62 45.101,58.62 C44.731,58.62 44.431,58.32 44.431,57.95 L44.431,52.33 L44.131,52.33 L44.131,57.95 C44.131,58.32 43.831,58.62 43.461,58.62 C43.091,58.62 42.791,58.32 42.791,57.95 L42.791,48.25 L42.491,48.25 L42.491,51.83 C42.491,52.54 41.551,52.54 41.551,51.83 L41.551,48.15 C41.551,47.29 42.081,46.6 42.931,46.6 L45.611,46.6 C46.541,46.6 47.01,47.38 47.01,48.17 L47.01,51.83 Z" id="Shape"></path>
            <path d="M31.53,73.2 C29.75,73.2 28.31,74.63 28.31,76.41 C28.31,78.18 29.75,79.62 31.53,79.62 C33.3,79.62 34.75,78.18 34.75,76.41 C34.75,74.63 33.3,73.2 31.53,73.2 Z M31.5,73.53 C31.75,73.53 31.95,73.73 31.95,73.98 C31.95,74.219 31.75,74.419 31.5,74.419 C31.26,74.419 31.06,74.219 31.06,73.98 C31.06,73.73 31.26,73.53 31.5,73.53 Z M32.54,76.46 C32.54,76.731 32.2,76.731 32.2,76.46 L32.2,75.13 L32.08,75.13 L32.08,78.74 C32.08,78.88 31.97,78.99 31.83,78.99 C31.7,78.99 31.58,78.88 31.58,78.74 L31.58,76.64 L31.47,76.64 L31.47,78.741 C31.47,78.881 31.36,78.991 31.22,78.991 C31.09,78.991 30.97,78.881 30.97,78.741 L30.98,75.131 L30.86,75.131 L30.86,76.461 C30.86,76.721 30.51,76.721 30.51,76.461 L30.51,75.091 C30.51,74.771 30.71,74.511 31.03,74.511 L32.02,74.511 C32.37,74.511 32.54,74.801 32.54,75.101 L32.54,76.46 Z" id="Shape"></path>
            <path d="M84.29,68.73 C82.51,68.73 81.07,70.16 81.07,71.94 C81.07,73.71 82.509,75.16 84.29,75.16 C86.05,75.16 87.5,73.71 87.5,71.94 C87.5,70.16 86.05,68.73 84.29,68.73 Z M84.26,69.06 C84.5,69.06 84.7,69.26 84.7,69.51 C84.7,69.75 84.5,69.95 84.26,69.95 C84.01,69.95 83.81,69.75 83.81,69.51 C83.81,69.26 84.01,69.06 84.26,69.06 Z M85.3,71.99 C85.3,72.26 84.95,72.26 84.95,71.99 L84.95,70.66 L84.84,70.66 L84.84,74.269 C84.84,74.41 84.731,74.519 84.59,74.519 C84.45,74.519 84.34,74.41 84.34,74.269 L84.34,72.179 L84.23,72.179 L84.23,74.269 C84.23,74.41 84.12,74.519 83.98,74.519 C83.839,74.519 83.73,74.41 83.73,74.269 L83.73,70.66 L83.62,70.66 L83.62,71.99 C83.62,72.26 83.269,72.26 83.269,71.99 L83.269,70.62 C83.269,70.3 83.469,70.05 83.78,70.05 L84.78,70.05 C85.13,70.05 85.3,70.34 85.3,70.63 L85.3,71.99 Z" id="Shape"></path>
            <path d="M45.41,11.31 C43.64,11.31 42.19,12.76 42.19,14.53 C42.19,16.31 43.64,17.75 45.41,17.75 C47.19,17.75 48.63,16.31 48.63,14.53 C48.63,12.76 47.19,11.31 45.41,11.31 Z M45.38,11.65 C45.63,11.65 45.83,11.85 45.83,12.1 C45.83,12.35 45.63,12.54 45.38,12.54 C45.14,12.54 44.94,12.35 44.94,12.1 C44.94,11.85 45.14,11.65 45.38,11.65 Z M46.43,14.58 C46.43,14.85 46.08,14.85 46.08,14.58 L46.08,13.25 L45.97,13.25 L45.97,16.86 C45.97,17 45.861,17.11 45.72,17.11 C45.58,17.11 45.47,17 45.47,16.86 L45.47,14.77 L45.36,14.77 L45.36,16.86 C45.36,17 45.25,17.11 45.11,17.11 C44.97,17.11 44.86,17 44.86,16.86 L44.86,13.25 L44.75,13.25 L44.75,14.58 C44.75,14.85 44.39,14.85 44.39,14.58 L44.39,13.21 C44.39,12.89 44.59,12.64 44.91,12.64 L45.91,12.64 C46.25,12.64 46.43,12.93 46.43,13.22 L46.43,14.58 Z" id="Shape"></path>
            <path d="M3.85,22.86 C2.08,22.86 0.65,24.3 0.65,26.08 C0.65,27.85 2.08,29.29 3.85,29.29 C5.63,29.29 7.07,27.85 7.07,26.08 C7.07,24.3 5.63,22.86 3.85,22.86 Z M3.83,23.2 C4.08,23.2 4.28,23.39 4.28,23.64 C4.28,23.89 4.08,24.09 3.83,24.09 C3.58,24.09 3.38,23.89 3.38,23.64 C3.38,23.39 3.58,23.2 3.83,23.2 Z M4.87,26.12 C4.87,26.39 4.52,26.39 4.52,26.12 L4.52,24.79 L4.41,24.79 L4.41,28.41 C4.41,28.54 4.3,28.66 4.16,28.66 C4.02,28.66 3.91,28.54 3.91,28.41 L3.91,26.31 L3.8,26.31 L3.8,28.41 C3.8,28.54 3.69,28.66 3.55,28.66 C3.41,28.66 3.3,28.54 3.3,28.41 L3.3,24.79 L3.19,24.79 L3.19,26.12 C3.19,26.39 2.84,26.39 2.84,26.12 L2.84,24.76 C2.84,24.44 3.04,24.18 3.35,24.18 L4.35,24.18 C4.7,24.18 4.87,24.47 4.87,24.77 L4.87,26.12 Z" id="Shape"></path>
            <path d="M86.6,0.05 C84.83,0.05 83.38,1.5 83.38,3.27 C83.38,5.05 84.83,6.49 86.6,6.49 C88.38,6.49 89.81,5.05 89.81,3.27 C89.81,1.5 88.38,0.05 86.6,0.05 Z M86.57,0.39 C86.82,0.39 87.019,0.59 87.019,0.84 C87.019,1.09 86.82,1.28 86.57,1.28 C86.33,1.28 86.13,1.09 86.13,0.84 C86.13,0.59 86.33,0.39 86.57,0.39 Z M87.62,3.32 C87.62,3.59 87.269,3.59 87.269,3.32 L87.269,1.99 L87.16,1.99 L87.16,5.6 C87.16,5.74 87.04,5.85 86.91,5.85 C86.769,5.85 86.66,5.74 86.66,5.6 L86.66,3.51 L86.55,3.51 L86.55,5.6 C86.55,5.74 86.43,5.85 86.3,5.85 C86.16,5.85 86.05,5.74 86.05,5.6 L86.05,1.99 L85.94,1.99 L85.94,3.32 C85.94,3.59 85.58,3.59 85.58,3.32 L85.58,1.96 C85.58,1.63 85.78,1.38 86.1,1.38 L87.1,1.38 C87.441,1.38 87.621,1.67 87.621,1.96 L87.621,3.32 L87.62,3.32 Z" id="Shape"></path>
            <path d="M52.71,74.49 C50.13,74.49 48.02,76.599 48.02,79.179 C48.02,81.769 50.13,83.879 52.71,83.879 C55.3,83.879 57.41,81.769 57.41,79.179 C57.41,76.6 55.3,74.49 52.71,74.49 Z M52.68,75.16 C53.02,75.16 53.3,75.44 53.3,75.78 C53.3,76.13 53.02,76.41 52.68,76.41 C52.33,76.41 52.05,76.13 52.05,75.78 C52.05,75.44 52.33,75.16 52.68,75.16 Z M54.13,79.25 C54.13,79.63 53.651,79.63 53.651,79.25 L53.651,77.39 L53.491,77.39 L53.491,82.441 C53.491,82.64 53.331,82.791 53.14,82.791 C52.951,82.791 52.79,82.641 52.79,82.441 L52.79,79.51 L52.64,79.51 L52.64,82.441 C52.64,82.64 52.481,82.791 52.29,82.791 C52.099,82.791 51.94,82.641 51.94,82.441 L51.94,77.39 L51.78,77.39 L51.78,79.25 C51.78,79.63 51.29,79.63 51.29,79.25 L51.29,77.34 C51.29,76.901 51.57,76.54 52.01,76.54 L53.41,76.54 C53.889,76.54 54.13,76.94 54.13,77.35 L54.13,79.25 Z" id="Shape"></path>
            <path d="M27.35,25.33 C24.59,25.33 22.34,27.57 22.34,30.33 C22.34,33.08 24.59,35.34 27.35,35.34 C30.11,35.34 32.35,33.08 32.35,30.33 C32.35,27.57 30.11,25.33 27.35,25.33 Z M27.31,26.07 C27.68,26.07 27.97,26.37 27.97,26.73 C27.97,27.1 27.68,27.39 27.31,27.39 C26.95,27.39 26.65,27.1 26.65,26.73 C26.65,26.37 26.95,26.07 27.31,26.07 Z M28.85,30.41 C28.86,30.8 28.34,30.8 28.34,30.41 L28.34,28.44 L28.18,28.44 L28.17,33.78 C28.17,33.99 28.01,34.15 27.81,34.15 C27.6,34.15 27.44,33.99 27.44,33.78 L27.44,30.68 L27.27,30.68 L27.27,33.78 C27.27,33.99 27.11,34.15 26.9,34.15 C26.7,34.15 26.53,33.99 26.53,33.78 L26.53,28.44 L26.37,28.44 L26.37,30.41 C26.37,30.8 25.85,30.8 25.85,30.41 L25.85,28.38 C25.85,27.91 26.14,27.53 26.61,27.53 L28.09,27.53 C28.6,27.53 28.85,27.96 28.85,28.4 L28.85,30.41 Z" id="Shape"></path>
            <path d="M76.71,22.9 C72.81,22.9 69.65,26.07 69.65,29.96 C69.65,33.87 72.809,37.03 76.71,37.03 C80.6,37.03 83.77,33.87 83.77,29.96 C83.77,26.07 80.6,22.9 76.71,22.9 Z M76.65,24.12 C77.15,24.12 77.559,24.52 77.559,25.02 C77.559,25.52 77.15,25.93 76.65,25.93 C76.15,25.93 75.75,25.52 75.75,25.02 C75.75,24.52 76.15,24.12 76.65,24.12 Z M78.77,30.07 C78.77,30.62 78.06,30.62 78.06,30.07 L78.06,27.37 L77.84,27.37 L77.84,34.71 C77.84,34.99 77.611,35.22 77.33,35.22 C77.049,35.22 76.82,34.99 76.82,34.71 L76.82,30.45 L76.6,30.45 L76.6,34.71 C76.6,34.99 76.371,35.22 76.09,35.22 C75.809,35.22 75.58,34.99 75.58,34.71 L75.58,27.37 L75.36,27.37 L75.36,30.07 C75.36,30.61 74.639,30.61 74.639,30.07 L74.639,27.29 C74.639,26.64 75.039,26.12 75.679,26.12 L77.709,26.12 C78.419,26.12 78.769,26.71 78.769,27.31 L78.769,30.07 L78.77,30.07 Z" id="Shape"></path>
            <path d="M82.22,85.86 C78.33,85.86 75.151,89.04 75.151,92.929 C75.151,96.829 78.331,99.999 82.22,99.999 C86.12,99.999 89.281,96.829 89.281,92.929 C89.28,89.04 86.12,85.86 82.22,85.86 Z M82.17,87.08 C82.67,87.08 83.07,87.49 83.07,87.99 C83.07,88.49 82.67,88.9 82.17,88.9 C81.67,88.9 81.26,88.49 81.26,87.99 C81.26,87.49 81.67,87.08 82.17,87.08 Z M84.29,93.04 C84.29,93.58 83.58,93.58 83.58,93.04 L83.58,90.33 L83.35,90.33 L83.35,97.67 C83.35,97.96 83.121,98.18 82.84,98.18 C82.559,98.18 82.34,97.96 82.34,97.67 L82.34,93.42 L82.11,93.42 L82.11,97.67 C82.11,97.96 81.88,98.18 81.599,98.18 C81.32,98.18 81.099,97.96 81.099,97.67 L81.099,90.33 L80.87,90.33 L80.87,93.04 C80.87,93.58 80.16,93.58 80.16,93.04 L80.16,90.26 C80.16,89.611 80.559,89.08 81.2,89.08 L83.23,89.08 C83.929,89.08 84.29,89.67 84.29,90.269 L84.29,93.04 Z" id="Shape"></path>
            <path d="M16.18,57.42 C14.4,57.42 12.96,58.86 12.96,60.63 C12.96,62.41 14.4,63.85 16.18,63.85 C17.95,63.85 19.39,62.411 19.39,60.63 C19.39,58.86 17.95,57.42 16.18,57.42 Z M16.15,57.75 C16.4,57.75 16.6,57.95 16.6,58.2 C16.6,58.45 16.4,58.65 16.15,58.65 C15.9,58.65 15.7,58.45 15.7,58.2 C15.7,57.95 15.9,57.75 16.15,57.75 Z M17.19,60.68 C17.19,60.951 16.84,60.951 16.84,60.68 L16.84,59.35 L16.73,59.35 L16.73,62.96 C16.73,63.1 16.62,63.21 16.48,63.21 C16.35,63.21 16.23,63.1 16.23,62.96 L16.23,60.87 L16.12,60.87 L16.12,62.96 C16.12,63.1 16.01,63.21 15.87,63.21 C15.74,63.21 15.62,63.1 15.62,62.96 L15.62,59.35 L15.51,59.35 L15.51,60.68 C15.51,60.951 15.16,60.951 15.16,60.68 L15.16,59.32 C15.16,59 15.36,58.74 15.67,58.74 L16.67,58.74 C17.02,58.74 17.19,59.03 17.19,59.33 L17.19,60.68 Z" id="Shape"></path>
            <path d="M11.2,80.18 C8.61,80.18 6.5,82.29 6.5,84.88 C6.5,87.47 8.61,89.57 11.2,89.57 C13.79,89.57 15.89,87.469 15.89,84.88 C15.89,82.291 13.79,80.18 11.2,80.18 Z M11.16,80.85 C11.5,80.85 11.78,81.13 11.78,81.481 C11.78,81.821 11.5,82.1 11.16,82.1 C10.81,82.1 10.53,81.821 10.53,81.481 C10.53,81.13 10.81,80.85 11.16,80.85 Z M12.61,84.95 C12.61,85.32 12.13,85.32 12.13,84.95 L12.13,83.09 L11.97,83.09 L11.97,88.13 C11.97,88.33 11.82,88.481 11.62,88.481 C11.43,88.481 11.27,88.331 11.27,88.13 L11.27,85.21 L11.12,85.21 L11.12,88.13 C11.12,88.33 10.96,88.481 10.77,88.481 C10.58,88.481 10.42,88.331 10.42,88.13 L10.42,83.09 L10.27,83.09 L10.27,84.95 C10.27,85.32 9.77,85.32 9.77,84.95 L9.77,83.03 C9.77,82.59 10.05,82.23 10.49,82.23 L11.89,82.23 C12.37,82.23 12.61,82.629 12.61,83.049 L12.61,84.95 Z" id="Shape"></path>
            <path d="M72.69,50.11 C69.929,50.11 67.7,52.36 67.7,55.11 C67.7,57.88 69.929,60.12 72.69,60.12 C75.45,60.12 77.69,57.88 77.69,55.11 C77.69,52.36 75.45,50.11 72.69,50.11 Z M72.65,50.86 C73.019,50.86 73.309,51.15 73.309,51.519 C73.309,51.879 73.019,52.169 72.65,52.169 C72.29,52.169 71.99,51.879 71.99,51.519 C71.99,51.15 72.29,50.86 72.65,50.86 Z M74.2,55.19 C74.2,55.589 73.679,55.589 73.679,55.19 L73.679,53.22 L73.519,53.22 L73.519,58.571 C73.519,58.77 73.349,58.941 73.15,58.941 C72.94,58.941 72.78,58.77 72.78,58.571 L72.78,55.47 L72.61,55.47 L72.61,58.571 C72.61,58.77 72.45,58.941 72.24,58.941 C72.04,58.941 71.87,58.77 71.87,58.571 L71.88,53.22 L71.71,53.22 L71.71,55.191 C71.71,55.59 71.19,55.59 71.19,55.191 L71.19,53.17 C71.19,52.691 71.48,52.31 71.95,52.31 L73.429,52.31 C73.94,52.31 74.2,52.741 74.2,53.18 L74.2,55.19 Z" id="Shape"></path>
        </g>
    </g>
</svg>