<?xml version="1.0" encoding="UTF-8"?>
<svg width="100px" height="100px" viewBox="0 0 100 100" version="1.1" xmlns="http://www.w3.org/2000/svg" xmlns:xlink="http://www.w3.org/1999/xlink">
    <!-- Generator: Sketch 48.2 (47327) - http://www.bohemiancoding.com/sketch -->
    <title>Artboard</title>
    <desc>Created with Sketch.</desc>
    <defs></defs>
    <g id="Page-1" stroke="none" stroke-width="1" fill="none" fill-rule="evenodd">
        <g id="noun_297916_cc" transform="translate(5.000000, 0.000000)"></g>
        <g id="Artboard" fill="#000000" fill-rule="nonzero">
            <g id="Group" transform="translate(2.000000, 46.000000)">
                <path d="M32.3114224,7.09321193 C31.5803167,7.33558428 31.0997711,8.0428676 31.137931,8.82039608 L31.137931,27.8194218 L2.12068966,27.8194218 C1.17803574,27.8195171 0.413887298,28.592748 0.413793103,29.546606 L0.520474138,50.2728158 C0.520568333,51.2266738 1.28471677,51.9999047 2.22737069,52 L94.2931034,52 C95.2357574,51.9999047 95.9999058,51.2266738 96,50.2728158 L96,29.546606 C95.9999058,28.592748 95.2357574,27.8195171 94.2931034,27.8194218 L65.2758621,27.8194218 L65.2758621,8.82039608 C65.2757679,7.8665381 64.5116194,7.09330724 63.5689655,7.09321193 L32.8448276,7.09321193 C32.6681243,7.06492936 32.4881257,7.06492936 32.3114224,7.09321193 Z M34.5517241,10.5475802 L61.862069,10.5475802 L61.862069,29.546606 C61.8621632,30.5004639 62.6263116,31.2736948 63.5689655,31.2737901 L92.5862069,31.2737901 L92.5862069,48.5456317 L3.93426724,48.5456317 L3.82758621,31.2737901 L32.8448276,31.2737901 C33.7874815,31.2736948 34.5516299,30.5004639 34.5517241,29.546606 L34.5517241,10.5475802 Z" id="Shape"></path>
                <path d="M8.14265806,20.8211001 C7.89922619,20.9133873 7.67996259,21.0602902 7.50156839,21.2506192 L0.663278544,28.1229258 C0.146447979,28.5249594 -0.0971082416,29.1879212 0.0357654313,29.831021 C0.168639104,30.4741209 0.654692865,30.9848313 1.28806401,31.1468465 C1.92143515,31.3088616 2.59129844,31.0938327 3.01394068,30.5928328 L9.31798913,24.2572534 L32.6109139,24.2572534 C33.2274454,24.2660134 33.800911,23.9404792 34.1117205,23.4053036 C34.42253,22.8701281 34.42253,22.2082254 34.1117205,21.6730498 C33.800911,21.1378742 33.2274454,20.81234 32.6109139,20.8211001 L8.67689946,20.8211001 C8.49991916,20.7929666 8.31963836,20.7929666 8.14265806,20.8211001 Z" id="Shape"></path>
                <path d="M62.5028372,22.8076262 C62.6439479,23.7564937 63.4904545,24.4055139 64.3935627,24.2572534 L86.6734631,24.2572534 L92.7033444,30.5928328 C93.1076057,31.0938327 93.7483362,31.3088616 94.3541616,31.1468465 C94.959987,30.9848313 95.424902,30.4741209 95.5519969,29.831021 C95.6790918,29.1879212 95.446128,28.5249594 94.9517748,28.1229258 L88.4108866,21.2506192 C88.1012217,20.9634171 87.6995894,20.8099689 87.2866714,20.8211001 L64.3935627,20.8211001 C64.2242794,20.7929666 64.0518391,20.7929666 63.8825558,20.8211001 C62.9794476,20.9693606 62.3617266,21.8587587 62.5028372,22.8076262 Z" id="Shape"></path>
                <path d="M39.1523944,0.0211000738 C38.9097023,0.113387316 38.6911051,0.260290197 38.513253,0.450619234 L31.6957455,7.3229258 C31.1804857,7.72495938 30.9376696,8.38792119 31.0701395,9.03102105 C31.2026093,9.67412091 31.6871859,10.1848313 32.3186322,10.3468465 C32.9500785,10.5088616 33.617906,10.2938327 34.0392637,9.79283278 L40.3241535,3.45725336 L56.0896396,3.45725336 L62.3745294,9.79283278 C62.7958871,10.2938327 63.4637146,10.5088616 64.0951609,10.3468465 C64.7266072,10.1848313 65.2111838,9.67412091 65.3436536,9.03102105 C65.4761235,8.38792119 65.2333074,7.72495938 64.7180476,7.3229258 L57.9005401,0.450619234 C57.5777792,0.163417059 57.1591616,0.00996888324 56.728781,0.0211000738 L39.6850122,0.0211000738 C39.5085697,-0.00703335794 39.3288368,-0.00703335794 39.1523944,0.0211000738 Z" id="Shape"></path>
                <polygon id="Shape" points="12.4137931 34.528 12.4137931 44.928 15.7241379 44.928 15.7241379 34.528"></polygon>
                <polygon id="Shape" points="19.0344828 34.528 19.0344828 44.928 22.3448276 44.928 22.3448276 34.528"></polygon>
                <polygon id="Shape" points="46.3448276 17.472 46.3448276 27.872 49.6551724 27.872 49.6551724 17.472"></polygon>
                <polygon id="Shape" points="70.3448276 34.528 70.3448276 44.928 73.6551724 44.928 73.6551724 34.528"></polygon>
                <polygon id="Shape" points="76.9655172 34.528 76.9655172 44.928 80.2758621 44.928 80.2758621 34.528"></polygon>
                <polygon id="Shape" points="83.5862069 34.528 83.5862069 44.928 86.8965517 44.928 86.8965517 34.528"></polygon>
            </g>
            <g id="Group" transform="translate(33.000000, 5.000000)">
                <polygon id="Shape" points="3 25.1733165 8.75722029 31 17 22.7838958 11.1998967 17"></polygon>
                <path d="M2.27105284,12.6942054 C2.55654561,12.9783532 3.01771256,12.9783532 3.30320541,12.6942054 L3.81557343,12.1842514 L4.84039877,13.204204 L4.3279861,13.7069098 C4.18890333,13.8453373 4.11572065,14.0347691 4.11572065,14.224201 C4.11572065,14.4208811 4.18890333,14.6030202 4.3279861,14.7414477 L6.38491936,16.7886901 C6.52400213,16.9271176 6.71433069,17 6.90465926,17 C7.08766059,17 7.27798916,16.9271177 7.41707193,16.7886901 L10,14.2179311 L3.31428555,7.56078052 C3.13749448,7.38695682 2.98116595,7.19779176 2.83891096,7 L0.214119579,9.61242512 C-0.0713731929,9.89657284 -0.0713731929,10.3628598 0.214119579,10.6469631 L2.27105284,12.6942054 Z" id="Shape"></path>
                <path d="M33.3287164,6.91079152 C34.2237612,5.90641215 34.2237612,4.27809796 33.3287164,3.28133494 L31.032993,0.724758144 C30.1653046,-0.241586048 28.6484867,-0.241586048 27.7739591,0.724758144 L25,3.82158297 L30.5547573,10 L33.3287164,6.91079152 Z" id="Shape"></path>
                <rect id="Rectangle-path" transform="translate(24.000000, 10.000000) rotate(-45.034433) translate(-24.000000, -10.000000) " x="20" y="6" width="8" height="8"></rect>
                <path d="M0.0170275802,34.0685301 C-0.0374205191,34.324695 0.040335392,34.5885823 0.226987502,34.7748667 C0.374761656,34.9223498 0.576983987,35 0.779206318,35 C0.825869385,35 0.880317484,34.9922302 0.926980473,34.9844605 L4,34.3701765 L0.629248479,31 L0.0170275802,34.0685301 Z" id="Shape"></path>
                <path d="M1.46202382,27.3924792 C1.35549264,27.4984523 1.27934585,27.6346836 1.25653431,27.7784911 L1.01294818,28.9592091 C0.967278645,29.2089896 1.043379,29.4663001 1.22605705,29.640412 L5.38216732,33.7804776 C5.52679511,33.9242851 5.72471179,34 5.92262846,34 C5.97587084,34 6.02154029,34 6.07482918,33.9848478 L7.25470972,33.7502194 C7.40691043,33.719915 7.53634603,33.6518224 7.64287721,33.5458493 L9,32.1964245 L2.86244671,26 L1.46202382,27.3924792 Z" id="Shape"></path>
                <path d="M22,16.944465 L7.88533285,2.81053533 C6.80609529,1.72982156 4.92103055,1.72982156 3.84179299,2.81053533 C3.29497224,3.35089222 3,4.07136807 3,4.84228249 C3,5.60598516 3.29497224,6.32646101 3.84179299,6.8668179 L17.9494778,21 C18.3871715,20.1441711 18.9548076,19.3502581 19.6531765,18.650802 C20.351765,17.9512579 21.1449449,17.3827574 22,16.944465 Z" id="Shape"></path>
                <path d="M32.6515609,20.3421433 C31.144475,18.8270409 29.1325861,18 26.9963384,18 C24.8600908,18 22.8554803,18.8270408 21.341116,20.3421433 C19.8340301,21.8499194 19,23.8627295 19,26 C19,28.1372259 19.8340301,30.150036 21.341116,31.657812 C22.8554803,33.1729144 24.8600908,34 26.9963384,34 C29.1325861,34 31.144475,33.1729144 32.6515609,31.657812 C34.1659699,30.150036 35,28.1372259 35,26 C35,23.8627295 34.1659699,21.8499194 32.6515609,20.3421433 Z M29.5715705,28.5763666 C28.8838686,29.2643834 27.9693736,29.6376754 26.9963385,29.6376754 C26.0233034,29.6376754 25.1161316,29.2643834 24.4284295,28.5763666 C23.0091316,27.1564188 23.0091316,24.8435366 24.4284295,23.4235888 C25.1161315,22.7355719 26.0233034,22.3622799 26.9963385,22.3622799 C27.9693736,22.3622799 28.8838686,22.7355719 29.5715705,23.4235888 C30.9908684,24.8435366 30.9908684,27.1564188 29.5715705,28.5763666 Z" id="Shape"></path>
            </g>
            <g id="Group" transform="translate(4.000000, 34.000000)">
                <polygon id="Shape" points="2 17.8380832 6.11230021 22 12 16.1313541 7.85706906 12"></polygon>
                <path d="M1.58973699,8.9859438 C1.78958193,9.18484721 2.11239879,9.18484721 2.31224379,8.9859438 L2.6709014,8.62897595 L3.38827914,9.34294277 L3.02959027,9.69483685 C2.93223233,9.7917361 2.88100446,9.9243384 2.88100446,10.0569407 C2.88100446,10.1946167 2.93223233,10.3221142 3.02959027,10.4190134 L4.46944355,11.8520831 C4.56680149,11.9489823 4.70003149,12 4.83326148,12 C4.96136242,12 5.09459241,11.9489824 5.19195035,11.8520831 L7,10.0525517 L2.31999989,5.39254637 C2.19624613,5.27086978 2.08681617,5.13845423 1.98723767,5 L0.149883705,6.82869758 C-0.049961235,7.02760099 -0.049961235,7.35400185 0.149883705,7.55287415 L1.58973699,8.9859438 Z" id="Shape"></path>
                <path d="M24.4778905,4.83755407 C25.1740365,4.13448851 25.1740365,2.99466857 24.4778905,2.29693445 L22.6923279,0.507330701 C22.0174591,-0.169110234 20.8377118,-0.169110234 20.1575238,0.507330701 L18,2.67510808 L22.3203668,7 L24.4778905,4.83755407 Z" id="Shape"></path>
                <rect id="Rectangle-path" transform="translate(17.000000, 7.000000) rotate(-45.034433) translate(-17.000000, -7.000000) " x="14" y="4" width="6" height="6"></rect>
                <path d="M0.0127706851,24.3013976 C-0.0280653893,24.4935213 0.030251544,24.6914367 0.170240626,24.83115 C0.281071242,24.9417624 0.43273799,25 0.584404739,25 C0.619402039,25 0.660238113,24.9941727 0.695235354,24.9883454 L3,24.5276324 L0.471936359,22 L0.0127706851,24.3013976 Z" id="Shape"></path>
                <path d="M1.34651787,19.0443594 C1.26661948,19.1238392 1.20950939,19.2260127 1.19240073,19.3338683 L1.00971113,20.2194068 C0.975458984,20.4067422 1.03253425,20.5997251 1.16954279,20.730309 L4.28662549,23.8353582 C4.39509634,23.9432138 4.54353384,24 4.69197135,24 C4.73190313,24 4.76615522,24 4.80612188,23.9886359 L5.69103229,23.8126646 C5.80518283,23.7899362 5.90225952,23.7388668 5.98215791,23.659387 L7,22.6473184 L2.39683503,18 L1.34651787,19.0443594 Z" id="Shape"></path>
                <path d="M15,11.2251603 L5.34259616,1.55457681 C4.60417046,0.815141065 3.31438932,0.815141065 2.57596363,1.55457681 C2.20182311,1.92429468 2,2.41725184 2,2.9447196 C2,3.46725301 2.20182311,3.96021017 2.57596363,4.32992804 L12.2285901,14 C12.5280647,13.4144329 12.9164473,12.8712292 13.3942787,12.392654 C13.8722603,11.9140185 14.4149623,11.5250445 15,11.2251603 Z" id="Shape"></path>
                <path d="M23.2386707,13.7566075 C22.1083562,12.6202807 20.5994396,12 18.9972538,12 C17.3950681,12 15.8916102,12.6202806 14.755837,13.7566075 C13.6255226,14.8874395 13,16.3970471 13,18 C13,19.6029194 13.6255226,21.112527 14.755837,22.243359 C15.8916102,23.3796858 17.3950681,24 18.9972538,24 C20.5994396,24 22.1083562,23.3796858 23.2386707,22.243359 C24.3744774,21.112527 25,19.6029194 25,18 C25,16.3970471 24.3744774,14.8874395 23.2386707,13.7566075 Z M20.9286779,19.9322749 C20.4129014,20.4482876 19.7270302,20.7282566 18.9972539,20.7282566 C18.2674775,20.7282566 17.5870987,20.4482876 17.0713222,19.9322749 C16.0068487,18.8673141 16.0068487,17.1326524 17.0713222,16.0676916 C17.5870986,15.5516789 18.2674775,15.27171 18.9972539,15.27171 C19.7270302,15.27171 20.4129014,15.5516789 20.9286779,16.0676916 C21.9931513,17.1326525 21.9931513,18.8673141 20.9286779,19.9322749 Z" id="Shape"></path>
            </g>
            <g id="Group" transform="translate(73.000000, 40.000000)">
                <polygon id="Shape" points="2 14.6704666 5.28984016 18 10 13.3050833 6.68565525 10"></polygon>
                <path d="M1.3626317,7.41652326 C1.53392737,7.58701189 1.81062754,7.58701189 1.98192325,7.41652326 L2.28934406,7.11055081 L2.90423926,7.72252238 L2.59679166,8.02414587 C2.513342,8.10720237 2.46943239,8.22086149 2.46943239,8.33452061 C2.46943239,8.45252864 2.513342,8.56181213 2.59679166,8.64486864 L3.83095162,9.87321406 C3.91440128,9.95627056 4.02859842,10 4.14279555,10 C4.25259636,10 4.36679349,9.9562706 4.45024316,9.87321406 L6,8.33075863 L1.98857133,4.33646831 C1.88249669,4.23217409 1.78869957,4.11867505 1.70334658,4 L0.128471747,5.56745507 C-0.0428239157,5.7379437 -0.0428239157,6.01771587 0.128471747,6.18817784 L1.3626317,7.41652326 Z" id="Shape"></path>
                <path d="M19.5524776,4.14647491 C20.1491741,3.54384729 20.1491741,2.56685877 19.5524776,1.96880096 L18.0219954,0.434854887 C17.4435364,-0.144951629 16.4323244,-0.144951629 15.8493061,0.434854887 L14,2.29294978 L17.7031715,6 L19.5524776,4.14647491 Z" id="Shape"></path>
                <rect id="Rectangle-path" transform="translate(13.500000, 5.500000) rotate(-45.034433) translate(-13.500000, -5.500000) " x="11" y="3" width="5" height="5"></rect>
                <path d="M0.00851379009,19.5342651 C-0.0187102596,19.6623475 0.020167696,19.7942911 0.113493751,19.8874334 C0.187380828,19.9611749 0.288491994,20 0.389603159,20 C0.412934692,20 0.440158742,19.9961151 0.463490236,19.9922303 L2,19.6850883 L0.314624239,18 L0.00851379009,19.5342651 Z" id="Shape"></path>
                <path d="M1.28876489,14.8702995 C1.2221829,14.9365327 1.17459116,15.0216773 1.16033394,15.111557 L1.00809261,15.8495057 C0.979549153,16.0056185 1.02711188,16.1664376 1.14128565,16.2752575 L3.73885458,18.8627985 C3.82924695,18.9526782 3.95294487,19 4.07664279,19 C4.10991927,19 4.13846268,19 4.17176823,18.9905299 L4.90919358,18.8438871 C5.00431902,18.8249469 5.08521627,18.782389 5.15179826,18.7161558 L6,17.8727653 L2.1640292,14 L1.28876489,14.8702995 Z" id="Shape"></path>
                <path d="M12,8.86550789 L4.57122781,1.42659754 C4.00320805,0.857800819 3.01106871,0.857800819 2.44304894,1.42659754 C2.15524855,1.71099591 2,2.09019372 2,2.49593815 C2,2.89788693 2.15524855,3.27708474 2.44304894,3.56148311 L9.86814619,11 C10.0985113,10.5495637 10.3972671,10.1317148 10.7648297,9.76357998 C11.1325079,9.39539888 11.549971,9.09618811 12,8.86550789 Z" id="Shape"></path>
                <path d="M18.5322256,11.4638396 C17.5902969,10.5169006 16.3328663,10 14.9977115,10 C13.6625567,10 12.4096752,10.5169005 11.4631975,11.4638396 C10.5212688,12.4061996 10,13.6642059 10,15 C10,16.3357662 10.5212688,17.5937725 11.4631975,18.5361325 C12.4096752,19.4830715 13.6625567,20 14.9977115,20 C16.3328663,20 17.5902969,19.4830715 18.5322256,18.5361325 C19.4787312,17.5937725 20,16.3357662 20,15 C20,13.6642059 19.4787312,12.4061996 18.5322256,11.4638396 Z M16.6072316,16.6102291 C16.1774179,17.0402397 15.6058585,17.2735471 14.9977116,17.2735471 C14.3895646,17.2735471 13.8225822,17.0402397 13.3927685,16.6102291 C12.5057073,15.7227617 12.5057073,14.2772104 13.3927685,13.389743 C13.8225822,12.9597324 14.3895646,12.726425 14.9977116,12.726425 C15.6058585,12.726425 16.1774179,12.9597324 16.6072316,13.389743 C17.4942928,14.2772104 17.4942928,15.7227617 16.6072316,16.6102291 Z" id="Shape"></path>
            </g>
        </g>
    </g>
</svg>