<?xml version="1.0" encoding="UTF-8"?>
<svg width="739px" height="740px" viewBox="0 0 739 740" version="1.1" xmlns="http://www.w3.org/2000/svg" xmlns:xlink="http://www.w3.org/1999/xlink">
    <!-- Generator: Sketch 48.2 (47327) - http://www.bohemiancoding.com/sketch -->
    <title>White</title>
    <desc>Created with Sketch.</desc>
    <defs></defs>
    <g id="Desktop" stroke="none" stroke-width="1" fill="none" fill-rule="evenodd" transform="translate(-1.000000, -1.000000)">
        <g id="White" transform="translate(1.000000, 1.000000)">
            <g id="Pie-Chart">
                <path d="M641.278973,610.574523 C669.329501,576.69802 690.073814,544.119575 703.528565,512.859594 C716.98661,481.591965 726.722479,443.385522 732.707099,398.248462 L428.674923,398.248443 L641.278965,610.574534 Z" id="Path-2" stroke="#FFFFFF" stroke-width="10"></path>
                <path d="M338,5.44953702 C252.870616,10.6541871 176.990679,46.8901826 110.176717,114.317917 C42.0785413,183.041662 7.15028882,267.506917 5.31224462,367.97929 C7.91997497,466.075666 42.8841751,551.563153 110.300359,624.652968 C177.594896,697.610899 263.709871,733.931065 368.989178,733.703198 L369.159715,733.702829 L369.329882,733.714081 C403.231764,735.955685 445.889279,727.833072 497.219856,709.262596 C546.253898,691.522965 583.436449,669.648683 608.807171,643.722278 L338,376.866881 L338,5.44953702 Z" id="Path-4" stroke="#FFFFFF" stroke-width="10"></path>
                <path d="M732.587627,338 C724.660571,252.932525 690.905442,178.705422 631.241333,115.158041 C571.53701,51.5678298 493.866724,15.1430818 398.000008,5.8511263 L398,338 L732.587627,338 Z" id="Path-3" stroke="#FFFFFF" stroke-width="10"></path>
                <path d="M43.2041161,213.265371 L101.761229,233.485459 C116.30452,186.989206 145.702768,147.309149 189.955972,114.445289 C234.209175,81.5814289 283.126461,62.8722519 336.707827,58.317758 L336.707827,6.65767264 C271.760434,11.582122 211.830755,34.4836096 156.918792,75.3621353 C102.006829,116.240661 64.1019372,162.208406 43.2041161,213.265371 Z" id="Path-5" fill="#FFFFFF"></path>
            </g>
            <g id="Bar-Chart" transform="translate(393.000000, 34.000000)" fill="#FFFFFF">
                <rect id="Rectangle" x="0" y="0" width="45" height="309"></rect>
                <rect id="Rectangle" x="70" y="177" width="45" height="132"></rect>
                <rect id="Rectangle" x="140" y="46" width="45" height="263"></rect>
                <rect id="Rectangle" x="210" y="120" width="45" height="189"></rect>
            </g>
            <g id="Nodes" transform="translate(40.000000, 265.000000)">
                <circle id="Oval-2" stroke="#FFFFFF" stroke-width="25" cx="247" cy="370" r="42.5"></circle>
                <circle id="Oval-3" fill="#FFFFFF" cx="600" cy="212" r="42"></circle>
                <circle id="Oval-3" fill="#FFFFFF" cx="226" cy="84" r="42"></circle>
                <circle id="Oval-3" fill="#FFFFFF" cx="42" cy="42" r="42"></circle>
                <path d="M291.5,348.5 L598.5,212.5" id="Line" stroke="#FFFFFF" stroke-width="35" stroke-linecap="square"></path>
                <path d="M245.5,319.5 L226.5,87.5" id="Line-2" stroke="#FFFFFF" stroke-width="35" stroke-linecap="square"></path>
                <path d="M226.5,85.5 L41.5,44.5" id="Line-3" stroke="#FFFFFF" stroke-width="35" stroke-linecap="square"></path>
            </g>
        </g>
    </g>
</svg>